<?xml version="1.0" standalone="no"?>
<!DOCTYPE svg PUBLIC "-//W3C//DTD SVG 1.1//EN" "http://www.w3.org/Graphics/SVG/1.1/DTD/svg11.dtd" >
<svg xmlns="http://www.w3.org/2000/svg" xmlns:xlink="http://www.w3.org/1999/xlink" version="1.1">
<metadata>
Created by FontForge 20201107 at Fri May 20 16:42:35 2011
 By Unknown
(c) by Abolfazl Seilsepour - +98 912 591 3420  -  seilsepor@yahoo.com
</metadata>
<defs>
<font id="FarBita" horiz-adv-x="0" >
  <font-face 
    font-family="Far.Bita"
    font-weight="400"
    font-stretch="normal"
    units-per-em="2048"
    panose-1="0 0 7 0 0 0 0 0 0 0"
    ascent="1638"
    descent="-410"
    bbox="-188 -683 2774 2084"
    underline-thickness="100"
    underline-position="-650"
    unicode-range="U+0020-FEFC"
  />
<missing-glyph horiz-adv-x="1024" 
d="M128 0v1298h768v-1298h-768zM256 128h512v1042h-512v-1042z" />
    <glyph glyph-name="uniFC60" unicode="&#x651;&#x64e;" arabic-form="isolated" 
d="M454 1247q6 -46 6 -83q0 -184 -125 -184q-63 0 -85 83q-52 -113 -137 -113q-77 0 -77 93q0 60 37 124h45q-18 -50 -18 -76q0 -43 47 -43q37 0 62 55q17 40 22 87l55 21q1 -60 6 -81q12 -48 53 -48q60 0 60 73q0 28 -8 72zM458 1367l-381 -103l-15 64l380 109z" />
    <glyph glyph-name="uniFC61" unicode="&#x651;&#x64f;" arabic-form="isolated" 
d="M462 1190q6 -45 6 -83q0 -184 -126 -184q-62 0 -85 84q-51 -113 -137 -113q-77 0 -77 93q0 60 37 123h46q-18 -49 -18 -75q0 -43 46 -43q37 0 62 55q17 40 22 87l56 21q1 -61 6 -81q12 -49 52 -49q60 0 60 73q0 29 -8 73zM464 1505q0 -100 -90 -163l53 -37l-43 -49
q-40 28 -57 51q-117 -77 -247 -102l-27 59q102 35 112 39q68 27 102 59q-28 45 -28 80q0 49 39 98q41 53 89 53q39 0 68 -24.5t29 -63.5zM406 1483q0 50 -56 50q-23 0 -45 -27t-22 -51q0 -48 47 -67q29 9 52.5 37.5t23.5 57.5z" />
    <glyph glyph-name="uniE818" unicode="&#x651;&#x64b;" 
d="M431 1160q6 -45 6 -84q0 -183 -126 -183q-63 0 -85 83q-51 -113 -137 -113q-77 0 -77 93q0 61 37 124h46q-19 -50 -19 -76q0 -42 47 -42q37 0 62 55q17 40 22 87l56 21q1 -61 6 -82q12 -48 52 -48q60 0 60 73q0 29 -8 72zM413 1422l-381 -103l-15 65l380 108zM422 1273
l-382 -103l-15 64l381 108z" />
    <glyph glyph-name="uniFC5E" unicode="&#x651;&#x64c;" arabic-form="isolated" 
d="M452 1205q6 -45 6 -84q0 -183 -125 -183q-63 0 -85 83q-52 -113 -138 -113q-77 0 -77 94q0 60 37 123h46q-18 -50 -18 -76q0 -42 46 -42q38 0 62 55q17 40 23 87l55 21q1 -61 6 -82q12 -48 52 -48q61 0 61 73q0 29 -8 72zM443 1504q0 -98 -89 -165l54 -37l-44 -49
q-45 23 -64 46q-96 -64 -240 -97l-27 59q12 5 25 13q35 33 35 74q0 21 -16 28q-23 11 -56 -9l-5 37q40 34 78 34q47 0 47 -55q0 -33 -30 -91q86 18 136 67q-28 44 -28 79q0 50 39 99q42 53 90 53q39 0 67 -24t28 -62zM387 1480q0 49 -56 49q-22 0 -42.5 -24.5t-20.5 -45.5
q0 -20 14 -43t32 -28q27 6 50 35t23 57z" />
    <glyph glyph-name="uniFC62" unicode="&#x651;&#x650;" horiz-adv-x="1" arabic-form="isolated" 
d="M444 1379q7 -46 7 -83q0 -184 -126 -184q-63 0 -85 83q-52 -114 -137 -114q-77 0 -77 94q0 60 37 124h46q-19 -50 -19 -76q0 -43 47 -43q37 0 62 55q17 40 22 87l55 21q2 -60 7 -81q12 -48 52 -48q60 0 60 73q0 28 -8 72zM434 974l-381 -102l-14 64l380 108z" />
    <glyph glyph-name="uniFC5F" unicode="&#x651;&#x64d;" arabic-form="isolated" 
d="M434 1546q6 -46 6 -83q0 -184 -126 -184q-62 0 -85 83q-51 -113 -137 -113q-77 0 -77 93q0 61 37 124h46q-18 -50 -18 -76q0 -43 46 -43q37 0 62 56q17 40 22 86l56 22q1 -61 6 -82q12 -48 52 -48q60 0 60 74q0 28 -8 71zM431 1123l-382 -102l-14 63l380 109zM439 974
l-381 -103l-15 64l381 109z" />
    <glyph glyph-name="uniFEF5" unicode="&#xfedf;&#xfe82;" horiz-adv-x="665" arabic-form="isolated" 
d="M624 142.5q-18 -51.5 -56.5 -86t-91 -51.5t-107.5 -17q-51 0 -99 14t-85.5 41.5t-60.5 69t-23 97.5q0 15 1.5 31t4.5 30v628h154v-643q-9 -29 -3 -51t22.5 -36.5t39.5 -22t49 -7.5q24 0 47 7.5t39 22t23 36.5t-1 51v643h151v-635q14 -70 -4 -121.5zM463 1023
q-30 -48 -63 -60.5t-67.5 -7t-70.5 19t-74 18t-77 -9.5t-78 -65v135q28 31 56.5 42.5t57.5 11t58.5 -9.5t57.5 -17.5t55.5 -13.5t53 2t49 30t44.5 70z" />
    <glyph glyph-name="uniFEF6" unicode="&#xfee0;&#xfe82;" horiz-adv-x="794" arabic-form="final" 
d="M599.5 18q-69.5 18 -118.5 56q-35 -35 -92.5 -54.5t-136.5 -19.5h-160v900h154v-746q42 0 70 5.5t45 19t24 36.5t7 59v625h152v-634q1 -33 18 -54.5t45.5 -34t67.5 -17.5t85 -5h54v-154h-62q-83 0 -152.5 18zM463 1023q-30 -48 -63 -60.5t-67.5 -7t-70.5 19t-74 18
t-77 -9.5t-78 -65v135q28 31 56.5 42.5t57.5 11t58.5 -9.5t57.5 -17.5t55.5 -13.5t53 2t49 30t44.5 70z" />
    <glyph glyph-name="uniFEF7" unicode="&#xfedf;&#xfe84;" horiz-adv-x="665" arabic-form="isolated" 
d="M624 142.5q-18 -51.5 -56.5 -86t-91 -51.5t-107.5 -17q-51 0 -99 14t-85.5 41.5t-60.5 69t-23 97.5q0 15 1.5 31t4.5 30v628h154v-643q-9 -29 -3 -51t22.5 -36.5t39.5 -22t49 -7.5q24 0 47 7.5t39 22t23 36.5t-1 51v643h151v-635q14 -70 -4 -121.5zM107 1065h81
q-2 40 13.5 75.5t46 62t75 41.5t101.5 15v-104q-27 1 -51.5 -8t-41.5 -23t-25 -30t-2 -29h120v-109h-317v109z" />
    <glyph glyph-name="uniFEF8" unicode="&#xfee0;&#xfe84;" horiz-adv-x="794" arabic-form="final" 
d="M599.5 18q-69.5 18 -118.5 56q-35 -35 -92.5 -54.5t-136.5 -19.5h-160v900h154v-746q42 0 70 5.5t45 19t24 36.5t7 59v625h152v-634q1 -33 18 -54.5t45.5 -34t67.5 -17.5t85 -5h54v-154h-62q-83 0 -152.5 18zM97 1065h81q-2 40 13.5 75.5t46 62t75 41.5t101.5 15v-104
q-27 1 -51.5 -8t-41.5 -23t-25 -30t-2 -29h120v-109h-317v109z" />
    <glyph glyph-name="uniFEF9" unicode="&#xfedf;&#xfe88;" horiz-adv-x="665" arabic-form="isolated" 
d="M624 142.5q-18 -51.5 -56.5 -86t-91 -51.5t-107.5 -17q-51 0 -99 14t-85.5 41.5t-60.5 69t-23 97.5q0 15 1.5 31t4.5 30v628h154v-643q-9 -29 -3 -51t22.5 -36.5t39.5 -22t49 -7.5q24 0 47 7.5t39 22t23 36.5t-1 51v643h151v-635q14 -70 -4 -121.5zM98 -262h81
q-2 40 13.5 75.5t46 62t75 41.5t101.5 15v-104q-27 1 -51.5 -8t-41.5 -23t-25 -30t-2 -29h120v-109h-317v109z" />
    <glyph glyph-name="uniFEFA" unicode="&#xfee0;&#xfe88;" horiz-adv-x="794" arabic-form="final" 
d="M599.5 18q-69.5 18 -118.5 56q-35 -35 -92.5 -54.5t-136.5 -19.5h-160v900h154v-746q42 0 70 5.5t45 19t24 36.5t7 59v625h152v-634q1 -33 18 -54.5t45.5 -34t67.5 -17.5t85 -5h54v-154h-62q-83 0 -152.5 18zM98 -262h81q-2 40 13.5 75.5t46 62t75 41.5t101.5 15v-104
q-27 1 -51.5 -8t-41.5 -23t-25 -30t-2 -29h120v-109h-317v109z" />
    <glyph glyph-name="uniFEFB" unicode="&#xfedf;&#xfe8e;" horiz-adv-x="665" arabic-form="isolated" 
d="M624 142.5q-18 -51.5 -56.5 -86t-91 -51.5t-107.5 -17q-51 0 -99 14t-85.5 41.5t-60.5 69t-23 97.5q0 15 1.5 31t4.5 30v628h154v-643q-9 -29 -3 -51t22.5 -36.5t39.5 -22t49 -7.5q24 0 47 7.5t39 22t23 36.5t-1 51v643h151v-635q14 -70 -4 -121.5z" />
    <glyph glyph-name="uniFEFC" unicode="&#xfee0;&#xfe8e;" horiz-adv-x="794" arabic-form="final" 
d="M599.5 18q-69.5 18 -118.5 56q-35 -35 -92.5 -54.5t-136.5 -19.5h-160v900h154v-746q42 0 70 5.5t45 19t24 36.5t7 59v625h152v-634q1 -33 18 -54.5t45.5 -34t67.5 -17.5t85 -5h54v-154h-62q-83 0 -152.5 18z" />
    <glyph glyph-name="uniFDF2" unicode="&#xfedf;&#xfee0;&#xfeea;" horiz-adv-x="1777" arabic-form="isolated" 
d="M242 286q-2 -25 6.5 -43t22.5 -28t31.5 -11.5t32 5.5t24.5 23.5t9 43.5v82q0 15 -5 29.5t-13.5 26t-20 18.5t-25.5 7q-15 0 -26.5 -7t-19.5 -18.5t-12 -26t-4 -29.5v-72zM763 0h-35q-37 0 -78.5 5.5t-81.5 17t-74.5 29t-56.5 42.5q-32 -27 -71 -37.5t-78.5 -7t-76.5 20
t-64.5 43t-43 63.5t-11.5 81v126q0 45 17 83t46 65.5t67.5 43.5t82.5 17q45 0 84 -15.5t68.5 -43.5t46 -66t16.5 -84v-113q2 -39 23 -62t52.5 -35t69 -15.5t71.5 -3.5h61v-2h52q40 0 67.5 4.5t45 16t25.5 31.5t10 51v642h151v-625q0 -36 7 -59t24.5 -36.5t46 -19t72.5 -5.5
h51l86 1q43 0 71.5 5.5t45.5 19t24 36.5t7 59v625h151v-623q0 -71 -16.5 -123t-51.5 -86t-90.5 -50t-134.5 -16h-151q-76 -1 -130 14.5t-91 47.5q-69 -63 -214 -63h-92v1z" />
    <glyph glyph-name="uni0622" unicode="&#x622;" horiz-adv-x="440" arabic-form="isolated" 
d="M433 953q-30 -48 -63 -60.5t-67.5 -7t-70.5 19t-74 18t-77 -9.5t-78 -65v135q28 31 56.5 42.5t57.5 11t58.5 -9.5t57.5 -17.5t55.5 -13.5t53 2t49 30t44.5 70zM141 803h153v-803h-153v803z" />
    <glyph glyph-name="uniFE82" unicode="&#x622;" horiz-adv-x="437" arabic-form="final" 
d="M401 0q-79 0 -134.5 16.5t-91 50.5t-51.5 86t-16 123v623h151v-625q0 -36 7 -59t24 -36.5t45.5 -19t71.5 -5.5h40v-154h-46zM423 1003q-30 -48 -63 -60.5t-67.5 -7t-70.5 19t-74 18t-77 -9.5t-78 -65v135q28 31 56.5 42.5t57.5 11t58.5 -9.5t57.5 -17.5t55.5 -13.5t53 2
t49 30t44.5 70z" />
    <glyph glyph-name="uni0623" unicode="&#x623;" horiz-adv-x="316" arabic-form="isolated" 
d="M118 900h151v-900h-151v900zM-19 1051h81q-2 40 13.5 75.5t46 62t75 41.5t101.5 15v-104q-27 1 -51.5 -8t-41.5 -23t-25 -30t-2 -29h120v-109h-317v109z" />
    <glyph glyph-name="uniFE84" unicode="&#x623;" horiz-adv-x="437" arabic-form="final" 
d="M401 0q-79 0 -134.5 16.5t-91 50.5t-51.5 86t-16 123v623h151v-625q0 -36 7 -59t24 -36.5t45.5 -19t71.5 -5.5h40v-154h-46zM41 1051h81q-2 40 13.5 75.5t46 62t75 41.5t101.5 15v-104q-27 1 -51.5 -8t-41.5 -23t-25 -30t-2 -29h120v-109h-317v109z" />
    <glyph glyph-name="uni0624" unicode="&#x624;" horiz-adv-x="606" arabic-form="isolated" 
d="M587 257v-138q0 -8 0.5 -16t-0.5 -16v-9v-1q-3 -75 -28 -149.5t-82.5 -134t-154.5 -97t-244 -37.5v151q45 0 91.5 6.5t89.5 23t79 44.5t60 72q-6 -2 -12.5 -2h-14.5q-40 0 -78 13t-67.5 39t-47.5 65t-18 90v81q0 52 19 92t49.5 67t69.5 41t80 14q37 0 73 -12.5t65 -37
t48 -62t23 -87.5zM311 190q0 -41 17 -59t39 -18q25 0 45 17t22 49v48q-2 35 -21 52t-42 17t-41.5 -19t-18.5 -61v-26zM32 612h81q-2 40 13.5 75.5t46 62t75 41.5t101.5 15v-104q-27 1 -51.5 -8t-41.5 -23t-25 -30t-2 -29h120v-109h-317v109z" />
    <glyph glyph-name="uniFE86" unicode="&#x624;" horiz-adv-x="665" arabic-form="final" 
d="M366 0q-39 0 -76 12.5t-66.5 38t-48 64t-19.5 89.5v83q1 52 20 91t49 65.5t68 39.5t77 13q40 0 78.5 -13.5t68.5 -40t48 -65.5t18 -90v-133h92v-154q-57 -1 -100 -3q-12 -65 -44 -126t-90.5 -108t-148 -75.5t-217.5 -28.5v151q50 0 102 8t98.5 29t83 58t55.5 95h-48z
M306 234q0 -42 18 -61t42 -19h65v109q-1 39 -22 59t-45 20q-23 0 -40.5 -19.5t-17.5 -63.5v-25zM42 662h81q-2 40 13.5 75.5t46 62t75 41.5t101.5 15v-104q-27 1 -51.5 -8t-41.5 -23t-25 -30t-2 -29h120v-109h-317v109z" />
    <glyph glyph-name="uni0625" unicode="&#x625;" horiz-adv-x="316" arabic-form="isolated" 
d="M118 900h151v-900h-151v900zM-26 -262h81q-2 40 13.5 75.5t46 62t75 41.5t101.5 15v-104q-27 1 -51.5 -8t-41.5 -23t-25 -30t-2 -29h120v-109h-317v109z" />
    <glyph glyph-name="uniFE88" unicode="&#x625;" horiz-adv-x="437" arabic-form="final" 
d="M401 0q-79 0 -134.5 16.5t-91 50.5t-51.5 86t-16 123v623h151v-625q0 -36 7 -59t24 -36.5t45.5 -19t71.5 -5.5h40v-154h-46zM36 -264h81q-2 40 13.5 75.5t46 62t75 41.5t101.5 15v-104q-27 1 -51.5 -8t-41.5 -23t-25 -30t-2 -29h120v-109h-317v109z" />
    <glyph glyph-name="uni0626" unicode="&#x626;" horiz-adv-x="791" arabic-form="isolated" 
d="M503 183.5q18 -13.5 54 -19.5t91 -7t130 -1q3 -59 -6.5 -122t-39 -116t-82.5 -87t-135 -34h-139q-53 -1 -104 16.5t-90.5 53.5t-64 90t-24.5 126v324h152v-327q0 -34 11.5 -58.5t30.5 -40t42 -23t47 -7.5h134q18 0 35 4t31.5 11.5t24 19t11.5 26.5q-145 0 -212 48.5
t-67 143.5v77q2 54 21.5 95t50 68.5t68.5 41t78 13.5t78.5 -13t68 -42t47 -75t16.5 -113h-150q-1 30 -7 47t-15 26t-20 11t-22 2q-24 0 -43 -18.5t-19 -64.5v-36q0 -26 18 -39.5zM92 586h81q-2 40 13.5 75.5t46 62t75 41.5t101.5 15v-104q-27 1 -51.5 -8t-41.5 -23t-25 -30
t-2 -29h120v-109h-317v109z" />
    <glyph glyph-name="uniFE8A" unicode="&#x626;" horiz-adv-x="809" arabic-form="final" 
d="M261.5 -104.5q11.5 -24.5 30.5 -40t42 -23t47 -7.5h134q62 -1 88.5 21t26.5 52q0 18 -8 36.5t-22.5 33t-36 23.5t-48.5 9h-139v154h447v-154h-64q10 -23 17 -50.5t7 -53.5q0 -44 -16 -84t-48 -70.5t-81 -49t-116 -18.5h-141q-53 -2 -103.5 15.5t-91 53t-65 89
t-24.5 125.5v305h153v-308q0 -34 11.5 -58.5zM102 426h81q-2 40 13.5 75.5t46 62t75 41.5t101.5 15v-104q-27 1 -51.5 -8t-41.5 -23t-25 -30t-2 -29h120v-109h-317v109z" />
    <glyph glyph-name="uniFE8B" unicode="&#x626;" horiz-adv-x="444" arabic-form="initial" 
d="M80 572h81q-2 40 13.5 75.5t46 62t75 41.5t101.5 15v-104q-27 1 -51.5 -8t-41.5 -23t-25 -30t-2 -29h120v-109h-317v109zM-16 0v154h63q46 0 85.5 5.5t68 19t45 36.5t16.5 59v88h153v-86q0 -71 -27.5 -123t-76 -86t-115 -50.5t-143.5 -16.5h-69z" />
    <glyph glyph-name="uniFE8C" unicode="&#x626;" horiz-adv-x="679" arabic-form="medial" 
d="M462 22q-73 22 -123 67q-48 -48 -120.5 -68.5t-162.5 -20.5h-63v154h57q45 0 83.5 5t67.5 17.5t45.5 34t18.5 54.5v97h154v-99q1 -33 17 -54t44.5 -33t67 -17t84.5 -5h58v-154h-64q-91 0 -164 22zM135 570h81q-2 41 13.5 76t46 61t75 41t101.5 15v-103q-27 2 -51.5 -7
t-41.5 -23.5t-25 -30.5t-2 -29h120v-108h-317v108z" />
    <glyph glyph-name="uni0627" unicode="&#x627;" horiz-adv-x="316" arabic-form="isolated" 
d="M118 900h151v-900h-151v900z" />
    <glyph glyph-name="uniFE8E" unicode="&#x627;" horiz-adv-x="437" arabic-form="final" 
d="M401 0q-79 0 -134.5 16.5t-91 50.5t-51.5 86t-16 123v623h151v-625q0 -36 7 -59t24 -36.5t45.5 -19t71.5 -5.5h40v-154h-46z" />
    <glyph glyph-name="uni0628" unicode="&#x628;" horiz-adv-x="1408" arabic-form="isolated" 
d="M342 16.5q-66 16.5 -114 50.5t-75.5 86t-27.5 123v86h151v-88q0 -36 16 -59t44.5 -36.5t68 -19t86.5 -5.5h523q46 0 85.5 5.5t68 19t44.5 36.5t16 59v88h154v-86q0 -71 -27.5 -123t-76 -86t-114.5 -50.5t-142 -16.5h-537q-77 0 -143 16.5zM635 -179q0 43 28.5 71t71.5 28
q20 0 38 -7.5t31.5 -20.5t21.5 -31.5t8 -39.5t-8 -39.5t-21.5 -32t-31.5 -21.5t-38 -8q-43 0 -71.5 29t-28.5 72z" />
    <glyph glyph-name="uniFE90" unicode="&#x628;" horiz-adv-x="1555" arabic-form="final" 
d="M335 16.5q-66 16.5 -115 50.5t-76.5 86t-27.5 123v86h154v-88q0 -36 16 -59t44.5 -36.5t67.5 -19t85 -5.5h461q45 0 83.5 5t67 17.5t46 34t19.5 54.5v97h151v-97q1 -33 18 -54.5t45.5 -34t67 -17.5t83.5 -5h58v-154h-63q-90 0 -163.5 22t-121.5 67q-51 -48 -123.5 -68.5
t-160.5 -20.5h-472q-78 0 -144 16.5zM594 -179q0 43 27.5 71t70.5 28q20 0 38 -7.5t32 -20.5t22 -31.5t8 -39.5t-8 -39.5t-22 -32t-32 -21.5t-38 -8q-43 0 -70.5 29t-27.5 72z" />
    <glyph glyph-name="uniFE91" unicode="&#x628;" horiz-adv-x="444" arabic-form="initial" 
d="M-16 0v154h63q46 0 85.5 5.5t68 19t45 36.5t16.5 59v88h153v-86q0 -71 -27.5 -123t-76 -86t-115 -50.5t-143.5 -16.5h-69zM118 -179q0 43 28 71t70 28q20 0 38.5 -7.5t32.5 -20.5t22 -31.5t8 -39.5t-8 -39.5t-22 -32t-32.5 -21.5t-38.5 -8q-42 0 -70 29t-28 72z" />
    <glyph glyph-name="uniFE92" unicode="&#x628;" horiz-adv-x="679" arabic-form="medial" 
d="M462 22q-73 22 -123 67q-48 -48 -120.5 -68.5t-162.5 -20.5h-63v154h57q45 0 83.5 5t67.5 17.5t45.5 34t18.5 54.5v97h154v-99q1 -33 17 -54t44.5 -33t67 -17t84.5 -5h58v-154h-64q-91 0 -164 22zM216 -179q0 43 27.5 71t70.5 28q20 0 38 -7.5t32 -20.5t22.5 -31.5
t8.5 -39.5t-8.5 -39.5t-22.5 -32t-32 -21.5t-38 -8q-43 0 -70.5 29t-27.5 72z" />
    <glyph glyph-name="uni067E" unicode="&#x67e;" horiz-adv-x="1398" arabic-form="isolated" 
d="M341 16.5q-66 16.5 -114 50.5t-75 86t-27 123v86h151v-88q0 -36 16 -59t44.5 -36.5t68 -19t86.5 -5.5h523q46 0 85.5 5.5t68 19t44.5 36.5t16 59v88h153v-86q0 -71 -27.5 -123t-76 -86t-114.5 -50.5t-142 -16.5h-536q-78 0 -144 16.5zM671 -394q0 44 27.5 71.5t70.5 27.5
q20 0 38 -7.5t32 -20.5t22.5 -31t8.5 -40q0 -21 -8.5 -39t-22.5 -31.5t-32 -21t-38 -7.5q-43 0 -70.5 28.5t-27.5 70.5zM545 -179q0 43 28 71t71 28q20 0 38 -7.5t32 -20.5t22 -31.5t8 -39.5t-8 -39.5t-22 -32t-32 -21.5t-38 -8q-43 0 -71 29t-28 72zM781 -179q0 43 27.5 71
t71.5 28q19 0 37.5 -7.5t32 -20.5t22 -31.5t8.5 -39.5t-8.5 -39.5t-22 -32t-32 -21.5t-37.5 -8q-44 0 -71.5 29t-27.5 72z" />
    <glyph glyph-name="uniFB57" unicode="&#x67e;" horiz-adv-x="1555" arabic-form="final" 
d="M335 16.5q-66 16.5 -115 50.5t-76.5 86t-27.5 123v86h154v-88q0 -36 16 -59t44.5 -36.5t67.5 -19t85 -5.5h461q45 0 83.5 5t67 17.5t46 34t19.5 54.5v97h151v-97q1 -33 18 -54.5t45.5 -34t67 -17.5t83.5 -5h58v-154h-63q-90 0 -163.5 22t-121.5 67q-51 -48 -123.5 -68.5
t-160.5 -20.5h-472q-78 0 -144 16.5zM613 -394q0 44 28 71.5t70 27.5q20 0 38.5 -7.5t32.5 -20.5t22 -31t8 -40q0 -21 -8 -39t-22 -31.5t-32.5 -21t-38.5 -7.5q-42 0 -70 28.5t-28 70.5zM488 -179q0 43 27.5 71t69.5 28q20 0 38.5 -7.5t32.5 -20.5t22 -31.5t8 -39.5
t-8 -39.5t-22 -32t-32.5 -21.5t-38.5 -8q-42 0 -69.5 29t-27.5 72zM723 -179q0 43 28 71t71 28q20 0 38 -7.5t31.5 -20.5t21.5 -31.5t8 -39.5t-8 -39.5t-21.5 -32t-31.5 -21.5t-38 -8q-43 0 -71 29t-28 72z" />
    <glyph glyph-name="uniFB58" unicode="&#x67e;" horiz-adv-x="444" arabic-form="initial" 
d="M137 -394q0 44 28 71.5t71 27.5q40 0 70 -27.5t30 -71.5q0 -21 -8 -39t-22 -31.5t-32 -21t-38 -7.5q-43 0 -71 28.5t-28 70.5zM-16 0v154h63q46 0 85.5 5.5t68 19t45 36.5t16.5 59v88h153v-86q0 -71 -27.5 -123t-76 -86t-115 -50.5t-143.5 -16.5h-69zM12 -179
q0 43 27.5 71t70.5 28q20 0 38 -7.5t32 -20.5t22 -31.5t8 -39.5t-8 -39.5t-22 -32t-32 -21.5t-38 -8q-43 0 -70.5 29t-27.5 72zM247 -179q0 43 28 71t71 28q20 0 38.5 -7.5t32 -20.5t21.5 -31.5t8 -39.5t-8 -39.5t-21.5 -32t-32 -21.5t-38.5 -8q-43 0 -71 29t-28 72z" />
    <glyph glyph-name="uniFB59" unicode="&#x67e;" horiz-adv-x="679" arabic-form="medial" 
d="M462 22q-73 22 -123 67q-48 -48 -120.5 -68.5t-162.5 -20.5h-63v154h57q45 0 83.5 5t67.5 17.5t45.5 34t18.5 54.5v97h154v-99q1 -33 17 -54t44.5 -33t67 -17t84.5 -5h58v-154h-64q-91 0 -164 22zM236 -394q0 44 27.5 71.5t69.5 27.5q20 0 38 -7.5t32 -20.5t22.5 -31
t8.5 -40q0 -21 -8.5 -39t-22.5 -31.5t-32 -21t-38 -7.5q-42 0 -69.5 28.5t-27.5 70.5zM110 -179q0 43 27.5 71t71.5 28q19 0 37.5 -7.5t32 -20.5t22 -31.5t8.5 -39.5t-8.5 -39.5t-22 -32t-32 -21.5t-37.5 -8q-44 0 -71.5 29t-27.5 72zM345 -179q0 43 27.5 71t71.5 28
q20 0 38 -7.5t32 -20.5t22.5 -31.5t8.5 -39.5t-8.5 -39.5t-22.5 -32t-32 -21.5t-38 -8q-44 0 -71.5 29t-27.5 72z" />
    <glyph glyph-name="uni062A" unicode="&#x62a;" horiz-adv-x="1394" arabic-form="isolated" 
d="M342 16.5q-66 16.5 -114 50.5t-75.5 86t-27.5 123v86h151v-88q0 -36 16 -59t44.5 -36.5t68 -19t86.5 -5.5h523q46 0 85.5 5.5t68 19t44.5 36.5t16 59v88h154v-86q0 -71 -27.5 -123t-76 -86t-114.5 -50.5t-142 -16.5h-537q-77 0 -143 16.5zM526 509q0 43 28 72t70 29
q20 0 38.5 -8t32.5 -21.5t22 -32t8 -39.5t-8 -39.5t-22 -31.5t-32.5 -20.5t-38.5 -7.5q-42 0 -70 28t-28 71zM762 509q0 43 27.5 72t71.5 29q20 0 38 -8t31.5 -21.5t21.5 -32t8 -39.5t-8 -39.5t-21.5 -31.5t-31.5 -20.5t-38 -7.5q-44 0 -71.5 28t-27.5 71z" />
    <glyph glyph-name="uniFE96" unicode="&#x62a;" horiz-adv-x="1572" arabic-form="final" 
d="M352 16.5q-66 16.5 -115 50.5t-76.5 86t-27.5 123v86h154v-88q0 -36 16 -59t44.5 -36.5t67.5 -19t85 -5.5h461q45 0 83.5 5t67 17.5t46 34t19.5 54.5v97h151v-97q1 -33 18 -54.5t45.5 -34t67 -17.5t83.5 -5h58v-154h-63q-90 0 -163.5 22t-121.5 67q-51 -48 -123.5 -68.5
t-160.5 -20.5h-472q-78 0 -144 16.5zM505 509q0 43 27.5 72t69.5 29q20 0 38.5 -8t32.5 -21.5t22 -32t8 -39.5t-8 -39.5t-22 -31.5t-32.5 -20.5t-38.5 -7.5q-42 0 -69.5 28t-27.5 71zM740 509q0 43 28 72t71 29q20 0 38 -8t31.5 -21.5t21.5 -32t8 -39.5t-8 -39.5
t-21.5 -31.5t-31.5 -20.5t-38 -7.5q-43 0 -71 28t-28 71z" />
    <glyph glyph-name="uniFE97" unicode="&#x62a;" horiz-adv-x="444" arabic-form="initial" 
d="M-16 0v154h63q46 0 85.5 5.5t68 19t45 36.5t16.5 59v88h153v-86q0 -71 -27.5 -123t-76 -86t-115 -50.5t-143.5 -16.5h-69zM12 588q0 44 27.5 72.5t70.5 28.5q20 0 38 -7.5t32 -21t22 -32t8 -40.5q0 -44 -30 -71t-70 -27q-43 0 -70.5 27t-27.5 71zM247 588q0 44 28 72.5
t71 28.5q41 0 70.5 -28.5t29.5 -72.5t-29.5 -71t-70.5 -27q-43 0 -71 27t-28 71z" />
    <glyph glyph-name="uniFE98" unicode="&#x62a;" horiz-adv-x="679" arabic-form="medial" 
d="M462 22q-73 22 -123 67q-48 -48 -120.5 -68.5t-162.5 -20.5h-63v154h57q45 0 83.5 5t67.5 17.5t45.5 34t18.5 54.5v97h154v-99q1 -33 17 -54t44.5 -33t67 -17t84.5 -5h58v-154h-64q-91 0 -164 22zM90 569q0 42 28 70.5t71 28.5q20 0 38 -7.5t32 -21t22 -31.5t8 -39
q0 -22 -8 -40t-22 -31.5t-32 -21t-38 -7.5q-43 0 -71 28t-28 72zM326 569q0 42 27.5 70.5t71.5 28.5q19 0 37.5 -7.5t32 -21t22 -31.5t8.5 -39q0 -22 -8.5 -40t-22 -31.5t-32 -21t-37.5 -7.5q-44 0 -71.5 28t-27.5 72z" />
    <glyph glyph-name="uni062B" unicode="&#x62b;" horiz-adv-x="1426" arabic-form="isolated" 
d="M351 16.5q-66 16.5 -114 50.5t-75 86t-27 123v86h151v-88q0 -36 16 -59t44.5 -36.5t68 -19t86.5 -5.5h523q46 0 85.5 5.5t68 19t44.5 36.5t16 59v88h153v-86q0 -71 -27.5 -123t-76 -86t-114.5 -50.5t-142 -16.5h-536q-78 0 -144 16.5zM662 724q0 42 27 70.5t71 28.5
q20 0 38 -7.5t32 -21t22.5 -31.5t8.5 -39q0 -22 -8.5 -40t-22.5 -31t-32 -20.5t-38 -7.5q-44 0 -71 27.5t-27 71.5zM536 509q0 43 28 72t70 29q20 0 38.5 -8t32.5 -21.5t22 -32t8 -39.5t-8 -39.5t-22 -31.5t-32.5 -20.5t-38.5 -7.5q-42 0 -70 28t-28 71zM772 509
q0 43 27.5 72t70.5 29q20 0 38 -8t32 -21.5t22 -32t8 -39.5t-8 -39.5t-22 -31.5t-32 -20.5t-38 -7.5q-43 0 -70.5 28t-27.5 71z" />
    <glyph glyph-name="uniFE9A" unicode="&#x62b;" horiz-adv-x="1572" arabic-form="final" 
d="M352 16.5q-66 16.5 -115 50.5t-76.5 86t-27.5 123v86h154v-88q0 -36 16 -59t44.5 -36.5t67.5 -19t85 -5.5h461q45 0 83.5 5t67 17.5t46 34t19.5 54.5v97h151v-97q1 -33 18 -54.5t45.5 -34t67 -17.5t83.5 -5h58v-154h-63q-90 0 -163.5 22t-121.5 67q-51 -48 -123.5 -68.5
t-160.5 -20.5h-472q-78 0 -144 16.5zM630 724q0 42 28 70.5t70 28.5q20 0 38.5 -7.5t32.5 -21t22 -31.5t8 -39q0 -22 -8 -40t-22 -31t-32.5 -20.5t-38.5 -7.5q-42 0 -70 27.5t-28 71.5zM505 509q0 43 27.5 72t69.5 29q20 0 38.5 -8t32.5 -21.5t22 -32t8 -39.5t-8 -39.5
t-22 -31.5t-32.5 -20.5t-38.5 -7.5q-42 0 -69.5 28t-27.5 71zM740 509q0 43 28 72t71 29q20 0 38 -8t31.5 -21.5t21.5 -32t8 -39.5t-8 -39.5t-21.5 -31.5t-31.5 -20.5t-38 -7.5q-43 0 -71 28t-28 71z" />
    <glyph glyph-name="uniFE9B" unicode="&#x62b;" horiz-adv-x="444" arabic-form="initial" 
d="M137 803q0 42 28 70.5t71 28.5q20 0 38 -7.5t32 -21t22 -31.5t8 -39q0 -22 -8 -40t-22 -31.5t-32 -21t-38 -7.5q-43 0 -71 28t-28 72zM-16 0v154h63q46 0 85.5 5.5t68 19t45 36.5t16.5 59v88h153v-86q0 -71 -27.5 -123t-76 -86t-115 -50.5t-143.5 -16.5h-69zM12 588
q0 44 27.5 72.5t70.5 28.5q20 0 38 -7.5t32 -21t22 -32t8 -40.5q0 -44 -30 -71t-70 -27q-43 0 -70.5 27t-27.5 71zM247 588q0 44 28 72.5t71 28.5q41 0 70.5 -28.5t29.5 -72.5t-29.5 -71t-70.5 -27q-43 0 -71 27t-28 71z" />
    <glyph glyph-name="uniFE9C" unicode="&#x62b;" horiz-adv-x="679" arabic-form="medial" 
d="M462 22q-73 22 -123 67q-48 -48 -120.5 -68.5t-162.5 -20.5h-63v154h57q45 0 83.5 5t67.5 17.5t45.5 34t18.5 54.5v97h154v-99q1 -33 17 -54t44.5 -33t67 -17t84.5 -5h58v-154h-64q-91 0 -164 22zM216 782q0 43 27.5 72t70.5 29q20 0 38 -8t32 -21.5t22.5 -32t8.5 -39.5
t-8.5 -39t-22.5 -31t-32 -20.5t-38 -7.5q-43 0 -70.5 28t-27.5 70zM90 569q0 42 28 70.5t71 28.5q20 0 38 -7.5t32 -21t22 -31.5t8 -39q0 -22 -8 -40t-22 -31.5t-32 -21t-38 -7.5q-43 0 -71 28t-28 72zM326 569q0 42 27.5 70.5t71.5 28.5q19 0 37.5 -7.5t32 -21t22 -31.5
t8.5 -39q0 -22 -8.5 -40t-22 -31.5t-32 -21t-37.5 -7.5q-44 0 -71.5 28t-27.5 72z" />
    <glyph glyph-name="uni062C" unicode="&#x62c;" horiz-adv-x="947" arabic-form="isolated" 
d="M436 -116q0 39 24 63.5t63 24.5q18 0 34 -6.5t28 -18t19 -28t7 -35.5t-7 -35t-19 -27.5t-28 -18t-34 -6.5q-39 0 -63 24.5t-24 62.5zM389 -391q-73 0 -126.5 23t-89 61.5t-53 87t-17.5 99.5t18 100t54 88t89.5 62.5t124.5 23.5h299q46 0 66 14.5t20 35.5q0 22 -19.5 46
t-43.5 36q-28 9 -54 16.5l-52 15t-52.5 15t-55.5 17.5q-17 5 -35.5 5.5t-35 -4t-28.5 -15t-17 -26.5q-2 -6 -4.5 -15t-5.5 -19t-6 -19t-4 -13l-150 27l16 58q17 51 45.5 88.5t65 59.5t79 29t87.5 -3l256 -75q42 -16 73.5 -41t52.5 -55t31 -63t10 -66q0 -39 -13.5 -76
t-40 -65t-66.5 -45t-92 -17h-328q-32 0 -55.5 -9.5t-39 -26t-23.5 -38t-8 -44.5q0 -22 8 -43.5t23.5 -38.5t39 -27.5t55.5 -10.5h383v-153h-381z" />
    <glyph glyph-name="uniFE9E" unicode="&#x62c;" horiz-adv-x="1129" arabic-form="final" 
d="M431 -116q0 39 24 63.5t62 24.5q18 0 34 -6.5t28 -18t19.5 -28t7.5 -35.5t-7.5 -35t-19.5 -27.5t-28 -18t-34 -6.5q-38 0 -62 24.5t-24 62.5zM384 -391q-73 0 -127 23t-89 61.5t-52.5 87t-17.5 99.5t18 100t54 88t89.5 62.5t124.5 23.5h253q47 0 66.5 14.5t19.5 35.5
q0 22 -19 46t-42 36q-58 18 -107.5 32.5t-105.5 34.5q-17 5 -36 5.5t-36 -4t-29.5 -15t-17.5 -28.5q-2 -6 -4.5 -15t-5.5 -19t-5.5 -18.5t-3.5 -12.5l-150 31l16 53q17 52 45.5 90t64.5 60.5t78.5 29t87.5 -4.5l257 -77q75 -28 116.5 -80.5t49.5 -109.5q5 -26 23.5 -42.5
t46 -25.5t63.5 -12.5t77 -3.5h59v-154h-63q-78 0 -143.5 16.5t-115.5 48.5q-26 -31 -64.5 -48t-92.5 -17h-285q-32 0 -55.5 -9.5t-39.5 -26t-23.5 -38t-7.5 -44.5q0 -22 7.5 -43.5t23.5 -38.5t39.5 -27.5t55.5 -10.5h385v-153h-382z" />
    <glyph glyph-name="uniFE9F" unicode="&#x62c;" horiz-adv-x="818" arabic-form="initial" 
d="M289 -182q0 42 27.5 70t71.5 28q19 0 37.5 -7.5t32 -20.5t22 -31t8.5 -39q0 -22 -8.5 -40.5t-22 -32t-32 -21t-37.5 -7.5q-44 0 -71.5 28.5t-27.5 72.5zM556 154q46 -1 66 14t19.5 36t-18 44t-44.5 38l-287 80q-28 0 -44.5 -14.5t-24.5 -32.5q-2 -5 -4.5 -14.5t-6 -19.5
t-6.5 -19t-4 -13l-147 36l15 49q17 52 45 89.5t64 60t79 29t90 -2.5l280 -86q42 -16 73.5 -41t52.5 -55t31 -63t10 -66q0 -39 -13.5 -76t-40 -65t-66.5 -45t-92 -17h-589v154h562z" />
    <glyph glyph-name="uniFEA0" unicode="&#x62c;" horiz-adv-x="1049" arabic-form="medial" 
d="M291 -182q0 42 28 70t71 28q20 0 38 -7.5t32 -20.5t22 -31t8 -39q0 -22 -8 -40.5t-22 -32t-32 -21t-38 -7.5q-43 0 -71 28.5t-28 72.5zM552 154q47 -1 68 15.5t21.5 38.5t-17.5 44.5t-48 33.5l-287 80q-28 0 -44.5 -14.5t-24.5 -32.5q-2 -5 -4.5 -14.5t-6 -19.5t-6.5 -19
t-4 -13l-148 34l16 51q17 52 45.5 89t64.5 59t78.5 29t87.5 -1l282 -86q76 -28 116 -80.5t48 -109.5q7 -26 25.5 -42.5t46 -25.5t63.5 -12.5t77 -3.5h58v-154h-64q-75 0 -141 16.5t-115 48.5q-27 -31 -66 -48t-93 -17h-589v154h561z" />
    <glyph glyph-name="uni0686" unicode="&#x686;" horiz-adv-x="955" arabic-form="isolated" 
d="M338 -116q0 39 24 63.5t63 24.5q35 0 61 -24.5t26 -63.5q0 -38 -26 -62.5t-61 -24.5q-39 0 -63 24.5t-24 62.5zM535 -116q0 39 24 63.5t62 24.5q18 0 34 -6.5t28 -18t19 -28t7 -35.5t-7 -35t-19 -27.5t-28 -18t-34 -6.5q-38 0 -62 24.5t-24 62.5zM731 -116
q0 39 24.5 63.5t62.5 24.5q18 0 34 -6.5t28 -18t19 -28t7 -35.5t-7 -35t-19 -27.5t-28 -18t-34 -6.5q-38 0 -62.5 24.5t-24.5 62.5zM397 -391q-73 0 -126.5 23t-89 61.5t-53 87t-17.5 99.5t18 100t54 88t89.5 62.5t124.5 23.5h299q46 0 66 14.5t20 35.5q0 22 -19.5 46
t-43.5 36q-28 9 -54 16.5l-52 15t-52.5 15t-55.5 17.5q-17 5 -35.5 5.5t-35 -4t-28.5 -15t-17 -26.5q-2 -6 -4.5 -15t-5.5 -19t-6 -19t-4 -13l-150 27l16 58q17 51 45.5 88.5t65 59.5t79 29t87.5 -3l256 -75q42 -16 73.5 -41t52.5 -55t31 -63t10 -66q0 -39 -13.5 -76
t-40 -65t-66.5 -45t-92 -17h-328q-32 0 -55.5 -9.5t-39 -26t-23.5 -38t-8 -44.5q0 -22 8 -43.5t23.5 -38.5t39 -27.5t55.5 -10.5h413v-153h-411z" />
    <glyph glyph-name="uniFB7B" unicode="&#x686;" horiz-adv-x="1156" arabic-form="final" 
d="M339 -116q0 39 24 63.5t62 24.5q18 0 34 -6.5t28 -18t19 -28t7 -35.5t-7 -35t-19 -27.5t-28 -18t-34 -6.5q-38 0 -62 24.5t-24 62.5zM536 -116q0 39 23.5 63.5t62.5 24.5q18 0 34 -6.5t28 -18t19 -28t7 -35.5t-7 -35t-19 -27.5t-28 -18t-34 -6.5q-39 0 -62.5 24.5
t-23.5 62.5zM731 -116q0 39 24.5 63.5t63.5 24.5q35 0 61 -24.5t26 -63.5q0 -19 -7 -35t-19 -27.5t-27.5 -18t-33.5 -6.5q-39 0 -63.5 24.5t-24.5 62.5zM410 -391q-73 0 -127 23t-89 61.5t-52.5 87t-17.5 99.5t18 100t54 88t89.5 62.5t124.5 23.5h253q47 0 66.5 14.5
t19.5 35.5q0 22 -19 46t-42 36q-58 18 -108 32.5t-106 34.5q-17 5 -35.5 5.5t-35.5 -4t-29.5 -15t-17.5 -28.5q-2 -6 -4.5 -15t-5.5 -19t-6 -18.5t-4 -12.5l-150 31l17 53q17 52 45.5 90t64.5 60.5t78.5 29t87.5 -4.5l257 -77q75 -28 116.5 -80.5t49.5 -109.5
q5 -26 23 -42.5t46 -25.5t64 -12.5t77 -3.5h58v-154h-62q-78 0 -143.5 16.5t-115.5 48.5q-26 -31 -65 -48t-92 -17h-285q-32 0 -55.5 -9.5t-39.5 -26t-23.5 -38t-7.5 -44.5q0 -22 7.5 -43.5t23.5 -38.5t39.5 -27.5t55.5 -10.5h395v-153h-392z" />
    <glyph glyph-name="uniFB7C" unicode="&#x686;" horiz-adv-x="803" arabic-form="initial" 
d="M291 -394q0 44 28 71.5t71 27.5q40 0 70 -27.5t30 -71.5q0 -21 -8 -39t-22 -31.5t-32 -21t-38 -7.5q-43 0 -71 28.5t-28 70.5zM166 -179q0 43 27.5 71t69.5 28q20 0 38.5 -7.5t32.5 -20.5t22 -31.5t8 -39.5t-8 -39.5t-22 -32t-32.5 -21.5t-38.5 -8q-42 0 -69.5 29
t-27.5 72zM401 -179q0 43 28 71t70 28q20 0 38 -7.5t32 -20.5t22.5 -31.5t8.5 -39.5t-8.5 -39.5t-22.5 -32t-32 -21.5t-38 -8q-42 0 -70 29t-28 72zM557 154q46 -1 66 14t19.5 36t-18 44t-44.5 38l-287 80q-28 0 -45 -14.5t-25 -32.5q-1 -5 -4 -14.5t-6 -19.5t-6 -19t-4 -13
l-148 36l16 49q17 52 45 89.5t64 60t78.5 29t89.5 -2.5l281 -86q42 -16 73.5 -41t52.5 -55t31 -63t10 -66q0 -39 -13.5 -76t-40 -65t-66.5 -45t-93 -17h-589v154h563z" />
    <glyph glyph-name="uniFB7D" unicode="&#x686;" horiz-adv-x="1044" arabic-form="medial" 
d="M276 -394q0 44 27.5 71.5t69.5 27.5q20 0 38 -7.5t32 -20.5t22.5 -31t8.5 -40q0 -21 -8.5 -39t-22.5 -31.5t-32 -21t-38 -7.5q-42 0 -69.5 28.5t-27.5 70.5zM150 -179q0 43 27.5 71t69.5 28q20 0 38 -7.5t32 -20.5t22.5 -31.5t8.5 -39.5t-8.5 -39.5t-22.5 -32t-32 -21.5
t-38 -8q-42 0 -69.5 29t-27.5 72zM385 -179q0 43 27.5 71t71.5 28q19 0 37 -7.5t32 -20.5t22 -31.5t8 -39.5t-8 -39.5t-22 -32t-32 -21.5t-37 -8q-44 0 -71.5 29t-27.5 72zM552 154q47 -1 68 15.5t21 38.5t-17.5 44.5t-47.5 33.5l-287 80q-28 0 -44.5 -14.5t-24.5 -32.5
q-2 -5 -4.5 -14.5t-6 -19.5t-6.5 -19t-4 -13l-149 34l17 51q17 52 45.5 89t64.5 59t78.5 29t87.5 -1l282 -86q76 -28 116 -80.5t47 -109.5q7 -26 25.5 -42.5t46 -25.5t63.5 -12.5t78 -3.5h57v-154h-63q-75 0 -141 16.5t-115 48.5q-27 -31 -66.5 -48t-92.5 -17h-590v154h562z
" />
    <glyph glyph-name="uni062D" unicode="&#x62d;" horiz-adv-x="943" arabic-form="isolated" 
d="M397 -391q-73 0 -126.5 23t-89 61.5t-53 87t-17.5 99.5t18 100t54 88t89.5 62.5t124.5 23.5h299q46 0 66 14.5t20 35.5q0 22 -19.5 46t-43.5 36q-28 9 -54 16.5l-52 15t-52.5 15t-55.5 17.5q-17 5 -35.5 5.5t-35 -4t-28.5 -15t-17 -26.5q-2 -6 -4.5 -15t-5.5 -19t-6 -19
t-4 -13l-150 27l16 58q17 51 45.5 88.5t65 59.5t79 29t87.5 -3l256 -75q42 -16 73.5 -41t52.5 -55t31 -63t10 -66q0 -39 -13.5 -76t-40 -65t-66.5 -45t-92 -17h-328q-32 0 -55.5 -9.5t-39 -26t-23.5 -38t-8 -44.5q0 -22 8 -43.5t23.5 -38.5t39 -27.5t55.5 -10.5h383v-153
h-381z" />
    <glyph glyph-name="uniFEA2" unicode="&#x62d;" horiz-adv-x="1138" arabic-form="final" 
d="M396 -391q-73 0 -126.5 23t-89 61.5t-52.5 87t-17 99.5t18 100t53.5 88t89 62.5t124.5 23.5h254q47 0 66.5 14.5t19.5 35.5q0 22 -19 46t-42 36q-58 18 -108 32.5t-106 34.5q-17 5 -35.5 5.5t-35.5 -4t-30 -15t-18 -28.5q-1 -6 -3.5 -15t-5.5 -19t-6 -18.5t-4 -12.5
l-150 31l17 53q17 52 45.5 90t64.5 60.5t78.5 29t87.5 -4.5l257 -77q37 -14 66 -35t50 -46t33 -53t16 -56q6 -26 24 -42.5t45.5 -25.5t63.5 -12.5t77 -3.5h59v-154h-62q-78 0 -143.5 16.5t-115.5 48.5q-26 -31 -65 -48t-93 -17h-284q-32 0 -55.5 -9.5t-39.5 -26t-23.5 -38
t-7.5 -44.5q0 -22 7.5 -43.5t23.5 -38.5t39.5 -27.5t55.5 -10.5h385v-153h-383z" />
    <glyph glyph-name="uniFEA3" unicode="&#x62d;" horiz-adv-x="814" arabic-form="initial" 
d="M557 154q46 -1 66 14t19.5 36t-18 44t-44.5 38l-287 80q-28 0 -44.5 -14.5t-24.5 -32.5q-2 -5 -4.5 -14.5t-6 -19.5t-6.5 -19t-4 -13l-147 36l15 49q35 104 109 149.5t168 26.5l281 -86q42 -16 73.5 -41t52.5 -55t31 -63t10 -66q0 -39 -13.5 -76t-40 -65t-66.5 -45
t-92 -17h-590v154h563z" />
    <glyph glyph-name="uniFEA4" unicode="&#x62d;" horiz-adv-x="1046" arabic-form="medial" 
d="M552 154q46 -1 67 15.5t21.5 38.5t-17 44.5t-47.5 33.5l-287 80q-28 0 -45 -14.5t-25 -32.5q-1 -5 -4 -14.5t-6 -19.5t-6 -19t-4 -13l-149 34l17 51q17 52 45 89t64.5 59t79 29t87.5 -1l282 -86q76 -28 115.5 -80.5t47.5 -109.5q7 -26 25.5 -42.5t46 -25.5t63.5 -12.5
t77 -3.5h58v-154h-64q-75 0 -140.5 16.5t-114.5 48.5q-27 -31 -66.5 -48t-93.5 -17h-589v154h562z" />
    <glyph glyph-name="uni062E" unicode="&#x62e;" horiz-adv-x="965" arabic-form="isolated" 
d="M462 696q0 42 27.5 70t71.5 28q19 0 37 -7.5t32 -20.5t22 -31t8 -39t-8 -39.5t-22 -32t-32 -21t-37 -7.5q-44 0 -71.5 29t-27.5 71zM407 -391q-73 0 -126.5 23t-89 61.5t-53 87t-17.5 99.5t18 100t54 88t89.5 62.5t124.5 23.5h299q46 0 66 14.5t20 35.5q0 22 -19.5 46
t-43.5 36q-28 9 -54 16.5l-52 15t-52.5 15t-55.5 17.5q-17 5 -35.5 5.5t-35 -4t-28.5 -15t-17 -26.5q-2 -6 -4.5 -15t-5.5 -19t-6 -19t-4 -13l-150 27l16 58q17 51 45.5 88.5t65 59.5t79 29t87.5 -3l256 -75q42 -16 73.5 -41t52.5 -55t31 -63t10 -66q0 -39 -13.5 -76
t-40 -65t-66.5 -45t-92 -17h-328q-32 0 -55.5 -9.5t-39 -26t-23.5 -38t-8 -44.5q0 -22 8 -43.5t23.5 -38.5t39 -27.5t55.5 -10.5h383v-153h-381z" />
    <glyph glyph-name="uniFEA6" unicode="&#x62e;" horiz-adv-x="1156" arabic-form="final" 
d="M417 696q0 42 27.5 70t70.5 28q20 0 38 -7.5t32 -20.5t22.5 -31t8.5 -39t-8.5 -39.5t-22.5 -32t-32 -21t-38 -7.5q-43 0 -70.5 29t-27.5 71zM407 -391q-73 0 -126.5 23t-89 61.5t-52.5 87t-17 99.5t18 100t53.5 88t89 62.5t124.5 23.5h253q48 0 67.5 14.5t19.5 35.5
q0 22 -19 46t-42 36q-58 18 -108 32.5t-106 34.5q-17 5 -36 5.5t-36 -4t-29.5 -15t-17.5 -28.5q-1 -6 -3.5 -15t-5.5 -19t-6 -18.5t-4 -12.5l-150 31l17 53q17 52 45 90t64.5 60.5t79 29t87.5 -4.5l257 -77q37 -14 66 -35t49.5 -46t33 -53t16.5 -56q6 -26 24 -42.5
t45.5 -25.5t63.5 -12.5t77 -3.5h59v-154h-62q-78 0 -144 16.5t-116 48.5q-26 -31 -64.5 -48t-92.5 -17h-284q-32 0 -55.5 -9.5t-39.5 -26t-23.5 -38t-7.5 -44.5q0 -22 7.5 -43.5t23.5 -38.5t39.5 -27.5t55.5 -10.5h385v-153h-383z" />
    <glyph glyph-name="uniFEA7" unicode="&#x62e;" horiz-adv-x="800" arabic-form="initial" 
d="M259 702q0 44 27.5 71t70.5 27q20 0 38 -7t32 -20t22.5 -31t8.5 -40q0 -21 -8.5 -39.5t-22.5 -32t-32 -21t-38 -7.5q-43 0 -70.5 29t-27.5 71zM556 154q46 -1 66 14t19.5 36t-18 44t-44.5 38l-287 80q-28 0 -44.5 -14.5t-24.5 -32.5q-2 -5 -4.5 -14.5t-6 -19.5t-6.5 -19
t-4 -13l-147 36l15 49q17 52 45 89.5t64 60t79 29t90 -2.5l280 -86q42 -16 73.5 -41t52.5 -55t31 -63t10 -66q0 -39 -13.5 -76t-40 -65t-66.5 -45t-92 -17h-589v154h562z" />
    <glyph glyph-name="uniFEA8" unicode="&#x62e;" horiz-adv-x="1036" arabic-form="medial" 
d="M552 154q47 -1 68 15.5t21.5 38.5t-17.5 44.5t-48 33.5l-286 80q-29 0 -45.5 -14.5t-24.5 -32.5q-2 -5 -4.5 -14.5t-5.5 -19.5t-6 -19t-4 -13l-149 34l17 51q17 52 45 89t64 59t78.5 29t88.5 -1l282 -86q75 -28 115 -80.5t48 -109.5q7 -26 25.5 -42.5t46 -25.5
t63.5 -12.5t77 -3.5h58v-154h-64q-75 0 -141 16.5t-114 48.5q-27 -31 -66.5 -48t-93.5 -17h-589v154h561zM260 702q0 44 27 71t71 27q20 0 38 -7t32 -20t22.5 -31t8.5 -40q0 -21 -8.5 -39.5t-22.5 -32t-32 -21t-38 -7.5q-44 0 -71 29t-27 71z" />
    <glyph glyph-name="uni062F" unicode="&#x62f;" horiz-adv-x="674" arabic-form="isolated" 
d="M112 0v154h260q91 0 116.5 41.5t-23.5 110.5l-170 260l153 56l177 -266q34 -69 35 -134.5t-30.5 -116t-96 -80t-161.5 -25.5h-260z" />
    <glyph glyph-name="uniFEAA" unicode="&#x62f;" horiz-adv-x="900" arabic-form="final" 
d="M113 0v154h259q22 -1 43.5 0.5t38.5 8t27.5 18.5t10.5 31q0 32 -30 94l-122 280l152 55l163 -360q12 -24 29 -47t42.5 -41t60 -28.5t79.5 -10.5h57v-154h-64q-87 -2 -146.5 20t-105.5 59q-14 -18 -34 -33t-47.5 -25t-65.5 -15.5t-88 -5.5h-259z" />
    <glyph glyph-name="uni0630" unicode="&#x630;" horiz-adv-x="674" arabic-form="isolated" 
d="M255 833q0 43 27.5 71t71.5 28q19 0 37 -7.5t32 -20.5t22 -31.5t8 -39.5t-8 -39.5t-22 -32t-32 -21t-37 -7.5q-44 0 -71.5 28.5t-27.5 71.5zM112 0v154h260q91 0 116.5 41.5t-23.5 110.5l-170 260l153 56l177 -266q34 -69 35 -134.5t-30.5 -116t-96 -80t-161.5 -25.5
h-260z" />
    <glyph glyph-name="uniFEAC" unicode="&#x630;" horiz-adv-x="900" arabic-form="final" 
d="M268 862q0 42 28 69.5t70 27.5q20 0 38 -7.5t32 -20t22 -30.5t8 -39q0 -22 -8 -40.5t-22 -32t-32 -21t-38 -7.5q-42 0 -70 28.5t-28 72.5zM113 0v154h259q22 -1 43.5 0.5t38.5 8t27.5 18.5t10.5 31q0 32 -30 94l-122 280l152 55l163 -360q12 -24 29 -47t42.5 -41
t60 -28.5t79.5 -10.5h57v-154h-64q-87 -2 -146.5 20t-105.5 59q-14 -18 -34 -33t-47.5 -25t-65.5 -15.5t-88 -5.5h-259z" />
    <glyph glyph-name="uni0631" unicode="&#x631;" horiz-adv-x="547" arabic-form="isolated" 
d="M525 295v-176q1 -53 -7 -107.5t-29.5 -105.5t-59 -96t-94 -78.5t-135.5 -53t-184 -19.5v151q61 0 124.5 12.5t115 46.5t84 94t32.5 156v176h153z" />
    <glyph glyph-name="uniFEAE" unicode="&#x631;" horiz-adv-x="791" arabic-form="final" 
d="M539 295v-69q10 -21 29.5 -35t46.5 -22.5t60.5 -11.5t70.5 -3h57v-154h-68q-54 0 -105 8.5t-95 25.5q-8 -71 -36.5 -138t-87 -119.5t-151.5 -85t-230 -32.5v151q61 0 124.5 12.5t115 46.5t84 94t32.5 156v176h153z" />
    <glyph glyph-name="uni0632" unicode="&#x632;" horiz-adv-x="549" arabic-form="isolated" 
d="M313 533q0 42 28 70t72 28q20 0 38 -7.5t31.5 -20.5t21.5 -31t8 -39t-8 -39.5t-21.5 -32t-31.5 -21t-38 -7.5q-44 0 -72 28.5t-28 71.5zM527 295v-176q1 -53 -7 -107.5t-29.5 -105.5t-59 -96t-94 -78.5t-135.5 -53t-184 -19.5v151q61 0 124.5 12.5t115 46.5t84 94
t32.5 156v176h153z" />
    <glyph glyph-name="uniFEB0" unicode="&#x632;" horiz-adv-x="793" arabic-form="final" 
d="M334 569q0 44 28 71.5t70 27.5q20 0 38.5 -7.5t32.5 -20.5t22 -31t8 -40q0 -21 -8 -39.5t-22 -32t-32.5 -21t-38.5 -7.5q-42 0 -70 28.5t-28 71.5zM541 295v-69q10 -21 29.5 -35t46.5 -22.5t60.5 -11.5t70.5 -3h57v-154h-68q-54 0 -105 8.5t-95 25.5q-8 -71 -36.5 -138
t-87 -119.5t-151.5 -85t-230 -32.5v151q61 0 124.5 12.5t115 46.5t84 94t32.5 156v176h153z" />
    <glyph glyph-name="uni0698" unicode="&#x698;" horiz-adv-x="615" arabic-form="isolated" 
d="M296 727q0 44 27.5 72.5t70.5 28.5q20 0 38 -7.5t32 -21t22.5 -32t8.5 -40.5q0 -21 -8.5 -39t-22.5 -31t-32 -20.5t-38 -7.5q-43 0 -70.5 27.5t-27.5 70.5zM170 514q0 42 28 70.5t70 28.5q20 0 38 -7.5t32 -21t22.5 -31.5t8.5 -39q0 -22 -8.5 -40t-22.5 -31t-32 -20.5
t-38 -7.5q-42 0 -70 27.5t-28 71.5zM405 514q0 42 28 70.5t72 28.5q19 0 37 -7.5t32 -21t22 -31.5t8 -39q0 -22 -8 -40t-22 -31t-32 -20.5t-37 -7.5q-44 0 -72 27.5t-28 71.5zM546 295v-176q1 -53 -7 -107.5t-29.5 -105.5t-59 -96t-94 -78.5t-135.5 -53t-184 -19.5v151
q61 0 124.5 12.5t115 46.5t84 94t32.5 156v176h153z" />
    <glyph glyph-name="uniFB8B" unicode="&#x698;" horiz-adv-x="819" arabic-form="final" 
d="M332 786q0 44 27.5 72.5t69.5 28.5q20 0 38 -7.5t32 -21t22.5 -32t8.5 -40.5q0 -21 -8.5 -39t-22.5 -30.5t-32 -20t-38 -7.5q-42 0 -69.5 27.5t-27.5 69.5zM206 572q0 43 27.5 71.5t70.5 28.5q20 0 38 -7.5t32 -21t22 -32t8 -39.5t-8 -39t-22 -31t-32 -20.5t-38 -7.5
q-43 0 -70.5 28t-27.5 70zM441 572q0 43 27.5 71.5t70.5 28.5q20 0 38 -7.5t32 -21t22.5 -32t8.5 -39.5t-8.5 -39t-22.5 -31t-32 -20.5t-38 -7.5q-43 0 -70.5 28t-27.5 70zM567 295v-69q10 -21 29.5 -35t46.5 -22.5t60.5 -11.5t70.5 -3h57v-154h-68q-54 0 -105 8.5t-95 25.5
q-8 -71 -36.5 -138t-87 -119.5t-151.5 -85t-230 -32.5v151q61 0 124.5 12.5t115 46.5t84 94t32.5 156v176h153z" />
    <glyph glyph-name="uni0633" unicode="&#x633;" horiz-adv-x="1537" arabic-form="isolated" 
d="M1317 16q-20 -9 -45.5 -12.5t-53.5 -3.5q-63 0 -122 18.5t-103 64.5q-39 -40 -97 -60.5t-119 -20.5q-34 0 -67 6t-62 20q-6 -65 -31.5 -113t-62.5 -79.5t-83 -47t-93 -15.5q-51 0 -100 18t-87.5 53.5t-62 88.5t-23.5 123v306h153v-307q0 -31 10 -54.5t26 -39t37 -23.5
t43 -8q23 0 45 8t39.5 23.5t28 39t10.5 54.5v307h151v-126q4 -20 17 -36t31 -27t40 -16.5t45 -5.5q27 0 52.5 7t45.5 21.5t31.5 35t10.5 47.5v100h152v-99q0 -27 11 -48t29 -35.5t41.5 -21.5t48.5 -7q28 0 54.5 7.5t47 23t33 38.5t12.5 54v88h153v-86q0 -47 -13.5 -88
t-38 -74.5t-58.5 -58t-76 -39.5z" />
    <glyph glyph-name="uniFEB2" unicode="&#x633;" horiz-adv-x="1746" arabic-form="final" 
d="M1538.5 21.5q-73.5 21.5 -123.5 62.5q-22 -23 -50.5 -40t-60.5 -28q-20 -9 -45.5 -12.5t-53.5 -3.5q-63 0 -122 18.5t-103 64.5q-39 -40 -97 -60.5t-119 -20.5q-34 0 -67 6t-62 20q-6 -65 -31.5 -113t-62.5 -79.5t-83 -47t-93 -15.5q-51 0 -100 18t-87.5 53.5t-62 88.5
t-23.5 123v306h153v-307q0 -31 10 -54.5t26 -39t37 -23.5t43 -8q23 0 45 8t39.5 23.5t28 39t10.5 54.5v307h151v-126q4 -20 17 -36t31 -27t40 -16.5t45 -5.5q27 0 52.5 7t45.5 21.5t31.5 35t10.5 47.5v100h152v-99q0 -27 11 -48t29 -35.5t41.5 -21.5t48.5 -7q28 0 54.5 7.5
t47 23t33 38.5t12.5 54v88h153v-103q1 -32 18 -52t45.5 -32t67 -16.5t83.5 -4.5h59v-154h-65q-86 0 -159.5 21.5z" />
    <glyph glyph-name="uniFEB3" unicode="&#x633;" horiz-adv-x="1309" arabic-form="initial" 
d="M1260 276q0 -63 -22.5 -114t-61.5 -87t-92.5 -55.5t-114.5 -19.5q-57 0 -115.5 18t-101.5 62q-38 -41 -94.5 -60.5t-118.5 -19.5q-61 0 -119 22t-96 64q-49 -47 -119.5 -66.5t-159.5 -19.5h-64v154h58q45 0 83.5 5t67 17.5t45 34t18.5 54.5v97h154v-103q-2 -26 8 -46
t29 -34t43.5 -21t51.5 -7q25 0 51 7t46 21.5t32 35t11 47.5v100h152v-99q1 -29 12.5 -50t30 -35t42 -21t47.5 -7q27 0 53 7.5t46.5 23t33.5 39t13 54.5v88h151v-86z" />
    <glyph glyph-name="uniFEB4" unicode="&#x633;" horiz-adv-x="1512" arabic-form="medial" 
d="M1309 20q-72 20 -121 64q-44 -47 -101.5 -65.5t-120.5 -18.5q-64 0 -120 19.5t-94 60.5q-38 -38 -96.5 -58t-119.5 -20q-60 0 -116.5 21t-95.5 63q-49 -47 -119.5 -66.5t-158.5 -19.5h-65v154h59q45 0 83.5 5t67 17.5t45 34t17.5 54.5v97h154v-99q0 -27 11 -48t30 -35.5
t43 -21.5t49 -7q26 0 51 7t44.5 21.5t31.5 35.5t12 48v99h153v-99q0 -29 11 -50t29 -35t41.5 -21t47.5 -7q27 0 53.5 7.5t47.5 23t34 39t13 54.5v88h151v-105q1 -31 17.5 -51t45.5 -31.5t68.5 -16t84.5 -4.5h58v-154h-65q-88 0 -160 20z" />
    <glyph glyph-name="uni0634" unicode="&#x634;" horiz-adv-x="1547" arabic-form="isolated" 
d="M1281.5 3.5q-25.5 -3.5 -53.5 -3.5q-63 0 -122 18.5t-103 64.5q-39 -40 -97 -60.5t-119 -20.5q-34 0 -67 6t-62 20q-6 -65 -31.5 -113t-62.5 -79.5t-83 -47t-93 -15.5q-51 0 -100 18t-87.5 53.5t-62 88.5t-23.5 123v306h153v-307q0 -31 10 -54.5t26 -39t37 -23.5t43 -8
q23 0 45 8t39.5 23.5t28 39t10.5 54.5v307h151v-126q4 -20 17 -36t31 -27t40 -16.5t45 -5.5q27 0 52.5 7t45.5 21.5t31.5 35t10.5 47.5v100h152v-99q0 -27 11 -48t29 -35.5t41.5 -21.5t48.5 -7q28 0 54.5 7.5t47 23t33 38.5t12.5 54v88h153v-86q0 -47 -13.5 -88t-38 -74.5
t-58.5 -58t-76 -39.5q-20 -9 -45.5 -12.5zM895 786q0 44 28 72.5t71 28.5q20 0 38 -7.5t32 -21t22.5 -32t8.5 -40.5q0 -21 -8.5 -39t-22.5 -30.5t-32 -20t-38 -7.5q-43 0 -71 27.5t-28 69.5zM771 572q0 43 27 71.5t70 28.5q20 0 38 -7.5t31.5 -21t21.5 -32t8 -39.5t-8 -39
t-21.5 -31t-31.5 -20.5t-38 -7.5q-43 0 -70 28t-27 70zM1006 572q0 43 27.5 71.5t70.5 28.5q20 0 38 -7.5t32 -21t22 -32t8 -39.5t-8 -39t-22 -31t-32 -20.5t-38 -7.5q-43 0 -70.5 28t-27.5 70z" />
    <glyph glyph-name="uniFEB6" unicode="&#x634;" horiz-adv-x="1764" arabic-form="final" 
d="M1556.5 21.5q-73.5 21.5 -123.5 62.5q-22 -23 -50.5 -40t-60.5 -28q-20 -9 -45.5 -12.5t-53.5 -3.5q-63 0 -122 18.5t-103 64.5q-39 -40 -97 -60.5t-119 -20.5q-34 0 -67 6t-62 20q-6 -65 -31.5 -113t-62.5 -79.5t-83 -47t-93 -15.5q-51 0 -100 18t-87.5 53.5t-62 88.5
t-23.5 123v306h153v-307q0 -31 10 -54.5t26 -39t37 -23.5t43 -8q23 0 45 8t39.5 23.5t28 39t10.5 54.5v307h151v-126q4 -20 17 -36t31 -27t40 -16.5t45 -5.5q27 0 52.5 7t45.5 21.5t31.5 35t10.5 47.5v100h152v-99q0 -27 11 -48t29 -35.5t41.5 -21.5t48.5 -7q28 0 54.5 7.5
t47 23t33 38.5t12.5 54v88h153v-103q1 -32 18 -52t45.5 -32t67 -16.5t83.5 -4.5h59v-154h-65q-86 0 -159.5 21.5zM896 816q0 42 28 71t71 29q20 0 38.5 -8t32.5 -21.5t22 -31.5t8 -39t-8 -39t-22 -31t-32.5 -20.5t-38.5 -7.5q-43 0 -71 28t-28 70zM770 602q0 43 28 71.5
t71 28.5q20 0 38 -7.5t32 -21t22.5 -32t8.5 -39.5t-8.5 -39.5t-22.5 -31.5t-32 -20.5t-38 -7.5q-43 0 -71 28t-28 71zM1007 602q0 43 28 71.5t70 28.5q20 0 38 -7.5t32 -21t22 -32t8 -39.5t-8 -39.5t-22 -31.5t-32 -20.5t-38 -7.5q-42 0 -70 28t-28 71z" />
    <glyph glyph-name="uniFEB7" unicode="&#x634;" horiz-adv-x="1309" arabic-form="initial" 
d="M1260 276q0 -63 -22.5 -114t-61.5 -87t-92.5 -55.5t-114.5 -19.5q-57 0 -115.5 18t-101.5 62q-38 -41 -94.5 -60.5t-118.5 -19.5q-61 0 -119 22t-96 64q-49 -47 -119.5 -66.5t-159.5 -19.5h-64v154h58q45 0 83.5 5t67 17.5t45 34t18.5 54.5v97h154v-103q-2 -26 8 -46
t29 -34t43.5 -21t51.5 -7q25 0 51 7t46 21.5t32 35t11 47.5v100h152v-99q1 -29 12.5 -50t30 -35t42 -21t47.5 -7q27 0 53 7.5t46.5 23t33.5 39t13 54.5v88h151v-86zM665 816q0 42 27 71t71 29q20 0 38 -8t32 -21.5t22 -31.5t8 -39t-8 -39t-22 -31t-32 -20.5t-38 -7.5
q-44 0 -71 28t-27 70zM539 602q0 43 27 71.5t71 28.5q20 0 38 -7.5t32 -21t22 -32t8 -39.5t-8 -39.5t-22 -31.5t-32 -20.5t-38 -7.5q-44 0 -71 28t-27 71zM775 602q0 43 27.5 71.5t69.5 28.5q20 0 38.5 -7.5t32.5 -21t22 -32t8 -39.5t-8 -39.5t-22 -31.5t-32.5 -20.5
t-38.5 -7.5q-42 0 -69.5 28t-27.5 71z" />
    <glyph glyph-name="uniFEB8" unicode="&#x634;" horiz-adv-x="1512" arabic-form="medial" 
d="M1309 20q-72 20 -121 64q-44 -47 -101.5 -65.5t-120.5 -18.5q-64 0 -120 19.5t-94 60.5q-38 -38 -96.5 -58t-119.5 -20q-60 0 -116.5 21t-95.5 63q-49 -47 -119.5 -66.5t-158.5 -19.5h-65v154h59q45 0 83.5 5t67 17.5t45 34t17.5 54.5v97h154v-99q0 -27 11 -48t30 -35.5
t43 -21.5t49 -7q26 0 51 7t44.5 21.5t31.5 35.5t12 48v99h153v-99q0 -29 11 -50t29 -35t41.5 -21t47.5 -7q27 0 53.5 7.5t47.5 23t34 39t13 54.5v88h151v-105q1 -31 17.5 -51t45.5 -31.5t68.5 -16t84.5 -4.5h58v-154h-65q-88 0 -160 20zM641 822q0 42 28 71.5t70 29.5
q20 0 38 -8t32 -21.5t22 -32t8 -39.5t-8 -39t-22 -31t-32 -20.5t-38 -7.5q-42 0 -70 28t-28 70zM516 607q0 44 27.5 72.5t69.5 28.5q20 0 38 -7.5t32 -21t22 -32t8 -40.5q0 -21 -8 -39t-22 -31t-32 -20.5t-38 -7.5q-42 0 -69.5 27.5t-27.5 70.5zM751 607q0 44 27.5 72.5
t71.5 28.5q19 0 37 -7.5t32 -21t22 -32t8 -40.5q0 -21 -8 -39t-22 -31t-32 -20.5t-37 -7.5q-44 0 -71.5 27.5t-27.5 70.5z" />
    <glyph glyph-name="uni0635" unicode="&#x635;" horiz-adv-x="1434" arabic-form="isolated" 
d="M759 9q-52 9 -97 28q-3 -67 -27.5 -116.5t-62 -82.5t-84 -49t-94.5 -16q-51 0 -100 18t-88 53.5t-62.5 88.5t-23.5 123v306h154v-307q0 -31 10 -54.5t26 -39t36.5 -23.5t42.5 -8t44 8t39.5 23.5t28 39t10.5 54.5v307h151v-97q5 -58 42 -80q8 82 35.5 138t69.5 91t95 50.5
t112 15.5h155q63 -2 112 -25.5t82.5 -59.5t51 -81t17.5 -91q0 -42 -15.5 -82.5t-47.5 -71.5t-81.5 -50t-118.5 -19h-300q-60 0 -112 9zM1168 154q60 -2 88 20t28 49q0 19 -8.5 37.5t-23.5 33t-36.5 23.5t-47.5 9h-143q-29 0 -57.5 -8t-51.5 -27.5t-39.5 -52.5t-20.5 -84h312
z" />
    <glyph glyph-name="uniFEBA" unicode="&#x635;" horiz-adv-x="1676" arabic-form="final" 
d="M655 37q-4 -67 -28.5 -116.5t-62 -82.5t-84.5 -49t-96 -16q-51 0 -100 18t-87.5 53.5t-62 88.5t-23.5 123v306h154v-307q0 -31 9.5 -54.5t26 -39t37 -23.5t43.5 -8q22 0 44 8t38.5 23.5t27 39t10.5 54.5v307h154v-99q3 -56 39 -78q9 82 37 138t70 91t95 50.5t112 15.5
h157q59 -2 106.5 -23t81 -54.5t51.5 -76t20 -88.5q7 -24 25.5 -40t45.5 -25.5t62.5 -14t76.5 -4.5h59v-154h-63q-83 0 -151.5 18t-118.5 53q-32 -35 -77.5 -53t-117.5 -18h-301q-121 0 -209 37zM1156 154q62 -2 90 20t28 49q0 19 -8 37.5t-23 33t-37 23.5t-50 9h-141
q-29 0 -57 -8t-51 -27.5t-39 -52.5t-21 -84h309z" />
    <glyph glyph-name="uniFEBB" unicode="&#x635;" horiz-adv-x="1180" arabic-form="initial" 
d="M451.5 22q-73.5 22 -122.5 67q-51 -48 -123.5 -68.5t-159.5 -20.5h-65v154h57q45 0 83.5 5t67 17.5t46 34t19.5 54.5v97h152v-99q2 -56 41 -78q8 82 36 138t70 91t95 50.5t112 15.5h155q63 -2 111 -25.5t81 -59.5t50 -81t17 -91q0 -42 -15.5 -82.5t-47 -71.5t-80.5 -50
t-116 -19h-301q-89 0 -162.5 22zM909 154q60 -2 88 20t28 49q0 19 -8 37.5t-23 33t-36.5 23.5t-48.5 9h-143q-29 0 -57 -8t-51.5 -27.5t-39.5 -52.5t-20 -84h311z" />
    <glyph glyph-name="uniFEBC" unicode="&#x635;" horiz-adv-x="1438" arabic-form="medial" 
d="M453 22q-73 22 -123 67q-48 -48 -120.5 -68.5t-162.5 -20.5h-63v154h57q45 0 83.5 5t67.5 17.5t45.5 34t18.5 54.5v97h154v-99q2 -55 40 -78q9 82 36.5 138t69.5 91t95.5 50.5t112.5 15.5h154q59 -2 106 -23.5t80.5 -55t52.5 -76t23 -87.5q6 -24 24 -40t45.5 -25.5
t63 -14t76.5 -4.5h60v-154h-64q-82 0 -150.5 18t-119.5 53q-32 -35 -78.5 -53t-118.5 -18h-301q-91 0 -164 22zM910 154q63 -2 91 20t28 49q0 19 -8.5 37.5t-24 33t-37.5 23.5t-49 9h-140q-29 0 -57 -8t-51.5 -27.5t-40 -52.5t-21.5 -84h310z" />
    <glyph glyph-name="uni0636" unicode="&#x636;" horiz-adv-x="1434" arabic-form="isolated" 
d="M759 9q-52 9 -97 28q-3 -67 -27.5 -116.5t-62 -82.5t-84 -49t-94.5 -16q-51 0 -100 18t-88 53.5t-62.5 88.5t-23.5 123v306h154v-307q0 -31 10 -54.5t26 -39t36.5 -23.5t42.5 -8t44 8t39.5 23.5t28 39t10.5 54.5v307h151v-97q5 -58 42 -80q8 82 35.5 138t69.5 91t95 50.5
t112 15.5h155q63 -2 112 -25.5t82.5 -59.5t51 -81t17.5 -91q0 -42 -15.5 -82.5t-47.5 -71.5t-81.5 -50t-118.5 -19h-300q-60 0 -112 9zM1168 154q60 -2 88 20t28 49q0 19 -8.5 37.5t-23.5 33t-36.5 23.5t-47.5 9h-143q-29 0 -57.5 -8t-51.5 -27.5t-39.5 -52.5t-20.5 -84h312
zM853 679q0 43 27.5 70t71.5 27q19 0 37 -7t32 -20t22 -31t8 -39t-8 -39.5t-22 -32t-32 -21.5t-37 -8q-44 0 -71.5 29t-27.5 72z" />
    <glyph glyph-name="uniFEBE" unicode="&#x636;" horiz-adv-x="1676" arabic-form="final" 
d="M655 37q-4 -67 -28.5 -116.5t-62 -82.5t-84.5 -49t-96 -16q-51 0 -100 18t-87.5 53.5t-62 88.5t-23.5 123v306h154v-307q0 -31 9.5 -54.5t26 -39t37 -23.5t43.5 -8q22 0 44 8t38.5 23.5t27 39t10.5 54.5v307h154v-99q3 -56 39 -78q9 82 37 138t70 91t95 50.5t112 15.5
h157q59 -2 106.5 -23t81 -54.5t51.5 -76t20 -88.5q7 -24 25.5 -40t45.5 -25.5t62.5 -14t76.5 -4.5h59v-154h-63q-83 0 -151.5 18t-118.5 53q-32 -35 -77.5 -53t-117.5 -18h-301q-121 0 -209 37zM1156 154q62 -2 90 20t28 49q0 19 -8 37.5t-23 33t-37 23.5t-50 9h-141
q-29 0 -57 -8t-51 -27.5t-39 -52.5t-21 -84h309zM848 666q0 44 28 72t70 28q20 0 38 -7.5t32 -21t22.5 -31.5t8.5 -40q0 -21 -8.5 -39.5t-22.5 -32t-32 -21t-38 -7.5q-42 0 -70 29t-28 71z" />
    <glyph glyph-name="uniFEBF" unicode="&#x636;" horiz-adv-x="1180" arabic-form="initial" 
d="M451.5 22q-73.5 22 -122.5 67q-51 -48 -123.5 -68.5t-159.5 -20.5h-65v154h57q45 0 83.5 5t67 17.5t46 34t19.5 54.5v97h152v-99q2 -56 41 -78q8 82 36 138t70 91t95 50.5t112 15.5h155q63 -2 111 -25.5t81 -59.5t50 -81t17 -91q0 -42 -15.5 -82.5t-47 -71.5t-80.5 -50
t-116 -19h-301q-89 0 -162.5 22zM909 154q60 -2 88 20t28 49q0 19 -8 37.5t-23 33t-36.5 23.5t-48.5 9h-143q-29 0 -57 -8t-51.5 -27.5t-39.5 -52.5t-20 -84h311zM616 672q0 44 27.5 71t69.5 27q41 0 71 -27t30 -71q0 -21 -8 -39.5t-22 -32t-32.5 -21t-38.5 -7.5
q-42 0 -69.5 29t-27.5 71z" />
    <glyph glyph-name="uniFEC0" unicode="&#x636;" horiz-adv-x="1438" arabic-form="medial" 
d="M453 22q-73 22 -123 67q-48 -48 -120.5 -68.5t-162.5 -20.5h-63v154h57q45 0 83.5 5t67.5 17.5t45.5 34t18.5 54.5v97h154v-99q2 -55 40 -78q9 82 36.5 138t69.5 91t95.5 50.5t112.5 15.5h154q59 -2 106 -23.5t80.5 -55t52.5 -76t23 -87.5q6 -24 24 -40t45.5 -25.5
t63 -14t76.5 -4.5h60v-154h-64q-82 0 -150.5 18t-119.5 53q-32 -35 -78.5 -53t-118.5 -18h-301q-91 0 -164 22zM910 154q63 -2 91 20t28 49q0 19 -8.5 37.5t-24 33t-37.5 23.5t-49 9h-140q-29 0 -57 -8t-51.5 -27.5t-40 -52.5t-21.5 -84h310zM616 672q0 44 27.5 71t69.5 27
q41 0 71 -27t30 -71q0 -21 -8 -39.5t-22 -32t-32.5 -21t-38.5 -7.5q-42 0 -69.5 29t-27.5 71z" />
    <glyph glyph-name="uni0637" unicode="&#x637;" horiz-adv-x="919" arabic-form="isolated" 
d="M326 431q35 23 75.5 36t85.5 13h156q62 -2 110.5 -25.5t81.5 -59.5t50 -81t17 -91q0 -42 -15.5 -82.5t-47 -71.5t-80.5 -50t-116 -19h-660v154h190v6t2 9v731h151v-469zM637 154q60 -2 87.5 20t27.5 49q0 19 -8 37.5t-23 33t-36 23.5t-48 9h-144q-29 0 -57 -8t-51 -27.5
t-39 -52.5t-20 -84h311z" />
    <glyph glyph-name="uniFEC2" unicode="&#x637;" horiz-adv-x="1201" arabic-form="final" 
d="M368 439q71 41 163 41h156q60 -2 108 -23t81.5 -54.5t51.5 -76t20 -88.5q7 -24 25.5 -40t45.5 -25.5t62 -14t76 -4.5h60v-154h-64q-78 0 -149 18.5t-119 52.5q-30 -31 -81 -51t-117 -20h-621v154h152v746h150v-461zM681 154q62 -2 89.5 20t27.5 49q0 19 -8.5 37.5
t-23.5 33t-36.5 23.5t-48.5 9h-144q-28 0 -55.5 -8t-51 -27.5t-40 -52.5t-22.5 -84h313z" />
    <glyph glyph-name="uniFEC3" unicode="&#x637;" horiz-adv-x="919" arabic-form="initial" 
d="M334 439q73 41 163 41h156q63 -2 111.5 -25.5t81.5 -59.5t50.5 -81t17.5 -91q0 -42 -15.5 -82.5t-47.5 -71.5t-81.5 -50t-116.5 -19h-666v154h195v746h152v-461zM647 154q62 -2 89 20t27 49q0 19 -8 37.5t-23 33t-36.5 23.5t-48.5 9h-144q-28 0 -56 -8t-51.5 -27.5
t-40 -52.5t-21.5 -84h313z" />
    <glyph glyph-name="uniFEC4" unicode="&#x637;" horiz-adv-x="1164" arabic-form="medial" 
d="M334 439q35 20 76.5 30.5t86.5 10.5h156q60 -2 108 -23t81.5 -54.5t51.5 -76t19 -88.5q7 -24 25.5 -40t46 -25.5t62.5 -14t76 -4.5h59v-154h-64q-78 0 -149 18.5t-118 52.5q-31 -31 -81.5 -51t-116.5 -20h-666v154h197v746h150v-461zM647 154q62 -2 89 20t27 49
q0 19 -8 37.5t-23 33t-36.5 23.5t-48.5 9h-144q-28 0 -56 -8t-51.5 -27.5t-40 -52.5t-21.5 -84h313z" />
    <glyph glyph-name="uni0638" unicode="&#x638;" horiz-adv-x="1015" arabic-form="isolated" 
d="M422 431q35 23 75.5 36t85.5 13h156q62 -2 110.5 -25.5t81.5 -59.5t50 -81t17 -91q0 -42 -15.5 -82.5t-47 -71.5t-80.5 -50t-116 -19h-660v154h190v6t2 9v731h151v-469zM733 154q60 -2 87.5 20t27.5 49q0 19 -8 37.5t-23 33t-36 23.5t-48 9h-144q-29 0 -57 -8t-51 -27.5
t-39 -52.5t-20 -84h311zM559 722q0 43 28 70.5t72 27.5q19 0 37 -7.5t32 -20.5t22 -31t8 -39t-8 -39.5t-22 -32t-32 -21t-37 -7.5q-44 0 -72 28.5t-28 71.5z" />
    <glyph glyph-name="uniFEC6" unicode="&#x638;" horiz-adv-x="1190" arabic-form="final" 
d="M357 439q71 41 163 41h156q60 -2 108 -23t81.5 -54.5t51.5 -76t20 -88.5q7 -24 25.5 -40t45.5 -25.5t62 -14t76 -4.5h60v-154h-64q-78 0 -149 18.5t-119 52.5q-30 -31 -81 -51t-117 -20h-621v154h152v746h150v-461zM670 154q62 -2 89.5 20t27.5 49q0 19 -8.5 37.5
t-23.5 33t-36.5 23.5t-48.5 9h-144q-28 0 -55.5 -8t-51 -27.5t-40 -52.5t-22.5 -84h313zM498 722q0 43 27 70.5t71 27.5q20 0 38 -7.5t32 -20.5t22.5 -31t8.5 -39t-8.5 -39.5t-22.5 -32t-32 -21t-38 -7.5q-44 0 -71 28.5t-27 71.5z" />
    <glyph glyph-name="uniFEC7" unicode="&#x638;" horiz-adv-x="930" arabic-form="initial" 
d="M334 439q73 41 163 41h156q63 -2 111.5 -25.5t81.5 -59.5t50.5 -81t17.5 -91q0 -42 -15.5 -82.5t-47.5 -71.5t-81.5 -50t-116.5 -19h-666v154h195v746h152v-461zM647 154q62 -2 89 20t27 49q0 19 -8 37.5t-23 33t-36.5 23.5t-48.5 9h-144q-28 0 -56 -8t-51.5 -27.5
t-40 -52.5t-21.5 -84h313zM463 722q0 43 28 70.5t72 27.5q40 0 69.5 -27.5t29.5 -70.5q0 -21 -8 -39.5t-21.5 -32t-31.5 -21t-38 -7.5q-44 0 -72 28.5t-28 71.5z" />
    <glyph glyph-name="uniFEC8" unicode="&#x638;" horiz-adv-x="1177" arabic-form="medial" 
d="M339 439q35 20 77 30.5t87 10.5h156q60 -2 107.5 -23t81 -54.5t51.5 -76t20 -88.5q7 -24 25.5 -40t46 -25.5t62.5 -14t76 -4.5h59v-154h-64q-78 0 -149 18.5t-118 52.5q-31 -31 -81.5 -51t-116.5 -20h-666v154h196v746h150v-461zM653 154q62 -2 89 20t27 49
q0 19 -8.5 37.5t-23.5 33t-36.5 23.5t-47.5 9h-144q-28 0 -56 -8t-51.5 -27.5t-40 -52.5t-22.5 -84h314zM463 722q0 43 28 70.5t72 27.5q19 0 37 -7.5t32 -20.5t22 -31t8 -39t-8 -39.5t-22 -32t-32 -21t-37 -7.5q-44 0 -72 28.5t-28 71.5z" />
    <glyph glyph-name="uni0639" unicode="&#x639;" horiz-adv-x="784" arabic-form="isolated" 
d="M366 -391q-71 0 -124.5 23.5t-89 61t-53.5 85.5t-18 99q0 39 11 78t33 72.5t54.5 60.5t75.5 44q-12 23 -16.5 45.5t-4.5 44.5q0 46 17 91t50 81t81.5 59.5t111.5 25.5h91q32 0 70 -8.5t79 -27.5v-187q-57 42 -93.5 55.5t-60.5 13.5h-79q-27 0 -48.5 -9t-36.5 -23.5
t-23.5 -33t-8.5 -37.5q0 -25 22.5 -46t76.5 -23h247v-154h-366q-32 0 -55 -9.5t-39 -26t-23.5 -38t-7.5 -44.5q0 -22 7.5 -43.5t23.5 -38.5t39 -27.5t55 -10.5h366v-153h-364z" />
    <glyph glyph-name="uniFECA" unicode="&#x639;" horiz-adv-x="749" arabic-form="final" 
d="M366 -305q-72 0 -126 23.5t-89 61.5t-52.5 86t-17.5 98q0 48 16 94.5t48.5 84.5t80.5 63t113 30v66h-164v152h478v-152h-163v-39q1 -33 17.5 -54t45 -33t67 -17t83.5 -5h58v-154h-62q-88 0 -160 21t-122 65h-53q-32 0 -55 -10t-38.5 -26.5t-23 -37.5t-7.5 -43t7.5 -44
t23 -39.5t38.5 -28.5t55 -11h262v-151h-260z" />
    <glyph glyph-name="uniFECB" unicode="&#x639;" horiz-adv-x="626" arabic-form="initial" 
d="M-12 154h105q-4 16 -6.5 35t-2.5 34q0 46 17 91t50 81t81 59.5t110 25.5h94q33 0 69.5 -8.5t77.5 -27.5v-187q-58 42 -93.5 55.5t-59.5 13.5h-78q-27 0 -49 -9t-37.5 -23.5t-23.5 -33t-8 -37.5q0 -27 28 -49t90 -20h260v-154h-624v154z" />
    <glyph glyph-name="uniFECC" unicode="&#x639;" horiz-adv-x="674" arabic-form="medial" 
d="M80 474h522v-151h-186v-58q1 -33 17.5 -54.5t44.5 -34t67 -17.5t86 -5h57v-154h-63q-91 0 -164.5 22t-122.5 67q-49 -48 -122 -68.5t-161 -20.5h-65v154h59q45 0 83.5 5t67 17.5t45 34t17.5 54.5v58h-182v151z" />
    <glyph glyph-name="uni063A" unicode="&#x63a;" horiz-adv-x="802" arabic-form="isolated" 
d="M374 -391q-72 0 -125.5 23.5t-89 61t-53.5 85.5t-18 99q0 39 11 78t32.5 72.5t54 60.5t75.5 44q-11 23 -15 45.5t-4 44.5q0 46 17 91t50 81t81 59.5t110 25.5h92q32 0 69.5 -8.5t79.5 -27.5v-187q-58 42 -93.5 55.5t-61.5 13.5h-79q-27 0 -48.5 -9t-36.5 -23.5t-23.5 -33
t-8.5 -37.5q0 -25 23 -46t77 -23h246v-154h-365q-32 0 -55 -9.5t-39 -26t-23.5 -38t-7.5 -44.5q0 -22 7.5 -43.5t23.5 -38.5t39 -27.5t55 -10.5h365v-153h-362zM448 690q0 42 28 70t70 28q20 0 38 -7.5t32 -20.5t22 -31t8 -39q0 -22 -8 -40.5t-22 -32t-32 -21t-38 -7.5
q-42 0 -70 28.5t-28 72.5z" />
    <glyph glyph-name="uniFECE" unicode="&#x63a;" horiz-adv-x="769" arabic-form="final" 
d="M379 -305q-72 0 -125.5 23.5t-89.5 61.5t-53.5 86t-17.5 98q0 48 16.5 94.5t49 84.5t81 63t113.5 30v66h-164v152h477v-152h-163v-39q1 -33 18 -54t45.5 -33t67 -17t83.5 -5h58v-154h-64q-87 0 -159.5 21t-120.5 65h-54q-32 0 -55 -10t-38.5 -26.5t-23 -37.5t-7.5 -43
t7.5 -44t23 -39.5t38.5 -28.5t55 -11h264v-151h-262zM326 662q0 44 27.5 71.5t71.5 27.5q19 0 37.5 -7.5t32 -20.5t22 -31t8.5 -40q0 -21 -8.5 -39t-22 -31.5t-32 -21t-37.5 -7.5q-44 0 -71.5 28.5t-27.5 70.5z" />
    <glyph glyph-name="uniFECF" unicode="&#x63a;" horiz-adv-x="631" arabic-form="initial" 
d="M-17 154h106q-5 16 -7.5 35t-2.5 34q0 46 17 91t49.5 81t80.5 59.5t110 25.5h95q32 0 68.5 -8.5t78.5 -27.5v-187q-58 42 -94 55.5t-59 13.5h-80q-27 0 -48.5 -9t-37 -23.5t-23.5 -33t-8 -37.5q0 -27 27.5 -49t89.5 -20h261v-154h-623v154zM253 668q0 44 28 71.5t72 27.5
q19 0 37 -7.5t32 -20.5t22 -31t8 -40q0 -21 -8 -39t-22 -31.5t-32 -21t-37 -7.5q-44 0 -72 28.5t-28 70.5z" />
    <glyph glyph-name="uniFED0" unicode="&#x63a;" horiz-adv-x="674" arabic-form="medial" 
d="M80 474h522v-151h-186v-58q1 -33 17.5 -54.5t44.5 -34t67 -17.5t86 -5h57v-154h-63q-91 0 -164.5 22t-122.5 67q-49 -48 -122 -68.5t-161 -20.5h-65v154h59q45 0 83.5 5t67 17.5t45 34t17.5 54.5v58h-182v151zM240 677q0 42 27 70t71 28q20 0 38 -7.5t32 -20.5t22.5 -31
t8.5 -39q0 -22 -8.5 -40.5t-22.5 -32t-32 -21t-38 -7.5q-44 0 -71 28.5t-27 72.5z" />
    <glyph glyph-name="uni0641" unicode="&#x641;" horiz-adv-x="1319" arabic-form="isolated" 
d="M454 0q-78 0 -144 16.5t-114 50.5t-75.5 86t-27.5 123v86h153v-88q0 -36 16 -59t44.5 -36.5t68.5 -19t87 -5.5h475h41t37 2q-66 26 -102.5 72t-36.5 114v84q1 52 20 91.5t49 66t67.5 39.5t76.5 13q41 0 79.5 -13.5t68.5 -40t48.5 -65.5t19.5 -91v-150q0 -71 -27 -123
t-75 -86t-114 -50.5t-143 -16.5h-492zM1039 325q10 -14 27 -22t40 -11t49 -3v1l-3 129q0 16 -6 28t-16 20.5t-21.5 12.5t-23.5 4q-23 0 -39.5 -15t-16.5 -41v-66q0 -23 10 -37zM967 826q0 43 27.5 70.5t71.5 27.5q40 0 69.5 -27.5t29.5 -70.5q0 -21 -8 -39.5t-21.5 -32
t-31.5 -21t-38 -7.5q-44 0 -71.5 28.5t-27.5 71.5z" />
    <glyph glyph-name="uniFED2" unicode="&#x641;" horiz-adv-x="1355" arabic-form="final" 
d="M317.5 16.5q-66.5 16.5 -115 50.5t-76 86t-27.5 123v86h153v-88q0 -36 16 -59t44.5 -36.5t68.5 -19t87 -5.5h417q-8 17 -12 40t-4 46v102q0 52 18.5 91t49.5 65t70 39t80 13q40 0 78.5 -13t68.5 -38.5t48 -65t18 -91.5v-102q0 -26 -5.5 -47.5t-12.5 -38.5h85v-154h-110
q-53 0 -96.5 2.5t-86.5 16.5q-61 -19 -146 -19h-467q-77 0 -143.5 16.5zM1146 317q-2 42 -21 62.5t-44 20.5q-23 0 -41.5 -20.5t-16.5 -62.5v-49q1 -42 21 -62.5t43 -20.5q24 0 42.5 20.5t16.5 62.5v49zM989 749q0 43 28 70.5t70 27.5q20 0 38 -7.5t32 -20.5t22 -31t8 -39
t-8 -39.5t-22 -32t-32 -21t-38 -7.5q-42 0 -70 28.5t-28 71.5z" />
    <glyph glyph-name="uniFED3" unicode="&#x641;" horiz-adv-x="473" arabic-form="initial" 
d="M-13 0v154h106h41.5t36.5 2q-66 26 -103 72t-37 114v84q0 52 18 91.5t48 66t68.5 39.5t78.5 13q41 0 80 -13.5t70 -40t49.5 -66t18.5 -90.5v-150q0 -71 -27.5 -123t-76 -86t-115 -50.5t-143.5 -16.5h-113zM194.5 325q9.5 -14 26.5 -22t40 -11t49 -3v108q-3 42 -23.5 62.5
t-43.5 20.5t-40.5 -20t-17.5 -63v-35q0 -23 9.5 -37zM137 809q0 42 28 69.5t72 27.5q19 0 37 -7.5t32 -20t22 -30.5t8 -39q0 -22 -8 -40.5t-22 -32t-32 -21t-37 -7.5q-44 0 -72 28.5t-28 72.5z" />
    <glyph glyph-name="uniFED4" unicode="&#x641;" horiz-adv-x="560" arabic-form="medial" 
d="M-12 0v154h105q-8 20 -9.5 39t-1.5 47v102q-1 52 17.5 91t48.5 65t69 39t79 13t78 -13t68 -38.5t48 -65t18 -91.5v-102q0 -26 -4 -47.5t-9 -38.5h81v-154h-108q-51 0 -97 4t-88 18q-43 -14 -89.5 -18t-95.5 -4h-110zM357 317q-1 42 -21 62.5t-46 20.5q-23 0 -40.5 -20.5
t-15.5 -62.5v-49q2 -42 21.5 -62.5t42.5 -20.5q24 0 42.5 20.5t16.5 62.5v49zM190 745q0 44 28 71.5t71 27.5q20 0 38 -7.5t32 -20.5t22.5 -31t8.5 -40q0 -21 -8.5 -39t-22.5 -31.5t-32 -21t-38 -7.5q-43 0 -71 28.5t-28 70.5z" />
    <glyph glyph-name="uni0642" unicode="&#x642;" horiz-adv-x="737" arabic-form="isolated" 
d="M463 -112.5q29 7.5 52 22.5t37 37.5t15 52.5h-63q-41 0 -79 13t-68 39.5t-48 65.5t-18 91v104q-1 51 17.5 90t49.5 65.5t70.5 39.5t80.5 13q40 0 78 -13t67.5 -39t47.5 -65t18 -91v-307q0 -74 -27.5 -127.5t-71 -89t-98.5 -52.5t-112 -17q-59 0 -116 18t-101 54t-71 89.5
t-27 124.5v305h154v-307q0 -32 13 -55t35 -38.5t49 -23t56 -7.5q31 0 60 7.5zM567 154v132q-2 41 -22 61t-44 20t-41.5 -20t-16.5 -61v-50q0 -41 19 -60.5t42 -21.5h63zM282 696q0 42 27.5 71t71.5 29q19 0 37 -8t32 -21.5t22 -31.5t8 -39t-8 -39t-22 -31t-32 -20.5
t-37 -7.5q-44 0 -71.5 28t-27.5 70zM519 696q0 42 27 71t71 29q20 0 38 -8t32 -21.5t22 -31.5t8 -39t-8 -39t-22 -31t-32 -20.5t-38 -7.5q-44 0 -71 28t-27 70z" />
    <glyph glyph-name="uniFED6" unicode="&#x642;" horiz-adv-x="815" arabic-form="final" 
d="M465 -112.5q29 7.5 52 22.5t37 37.5t15 52.5h-62q-41 0 -80 13t-69 39.5t-48 65.5t-18 91v104q0 51 18.5 90t49 65.5t70 39.5t80.5 13q40 0 78.5 -13t68.5 -39t48 -65t18 -91v-159h102v-154h-102q-2 -71 -30 -124t-72 -87.5t-98.5 -51.5t-110.5 -17q-59 0 -115.5 18
t-101 54t-71.5 89.5t-27 124.5v305h154v-307q0 -32 13 -55t35 -38.5t50 -23t57 -7.5q30 0 59 7.5zM465 175.5q20 -19.5 43 -21.5h61v132q-2 41 -22.5 61t-44.5 20q-23 0 -41 -20t-16 -61v-50q0 -41 20 -60.5zM291 694q0 43 27 71.5t70 28.5q20 0 38 -7.5t32 -21t22.5 -32
t8.5 -39.5t-8.5 -39t-22.5 -31t-32 -20.5t-38 -7.5q-43 0 -70 27.5t-27 70.5zM526 694q0 43 27.5 71.5t70.5 28.5q20 0 38 -7.5t32 -21t22 -32t8 -39.5t-8 -39t-22 -31t-32 -20.5t-38 -7.5q-43 0 -70.5 27.5t-27.5 70.5z" />
    <glyph glyph-name="uniFED7" unicode="&#x642;" horiz-adv-x="482" arabic-form="initial" 
d="M-14 0v154h106h41.5t36.5 2q-65 26 -102 72t-37 114v84q0 52 18 91.5t48 66t68 39.5t78 13q41 0 80.5 -13.5t70 -40t49.5 -66t19 -90.5v-150q0 -71 -27.5 -123t-76.5 -86t-115 -50.5t-144 -16.5h-113zM194 325q10 -14 27 -22t39.5 -11t48.5 -3v108q-2 42 -23 62.5
t-44 20.5t-40.5 -20t-17.5 -63v-35q0 -23 10 -37zM21 820q0 42 28 70.5t71 28.5q19 0 37 -7.5t32 -21t22 -31.5t8 -39t-8 -39t-22 -31t-32 -20.5t-37 -7.5q-43 0 -71 27.5t-28 70.5zM256 820q0 42 28 70.5t72 28.5q20 0 38 -7.5t32 -21t22 -31.5t8 -39t-8 -39t-22 -31
t-32 -20.5t-38 -7.5q-44 0 -72 27.5t-28 70.5z" />
    <glyph glyph-name="uniFED8" unicode="&#x642;" horiz-adv-x="560" arabic-form="medial" 
d="M-12 0v154h105q-8 20 -9.5 39t-1.5 47v102q-1 52 17.5 91t48.5 65t69 39t79 13t78 -13t68 -38.5t48 -65t18 -91.5v-102q0 -26 -4 -47.5t-9 -38.5h81v-154h-108q-51 0 -97 4t-88 18q-43 -14 -89.5 -18t-95.5 -4h-110zM357 317q-1 42 -21 62.5t-46 20.5q-23 0 -40.5 -20.5
t-15.5 -62.5v-49q2 -42 21.5 -62.5t42.5 -20.5q24 0 42.5 20.5t16.5 62.5v49zM67 733q0 43 27.5 71.5t70.5 28.5q20 0 38 -7.5t32 -21t22 -32t8 -39.5t-8 -39t-22 -30.5t-32 -20t-38 -7.5q-43 0 -70.5 27.5t-27.5 69.5zM302 733q0 43 27.5 71.5t70.5 28.5q20 0 38 -7.5
t32 -21t22.5 -32t8.5 -39.5t-8.5 -39t-22.5 -30.5t-32 -20t-38 -7.5q-43 0 -70.5 27.5t-27.5 69.5z" />
    <glyph glyph-name="uni0643" unicode="&#x643;" horiz-adv-x="1344" arabic-form="isolated" 
d="M936 684q-35 0 -54 -16t-22 -37.5t10.5 -43.5t43.5 -35l250 -137q46 -20 76.5 -58.5t43 -85t6 -94.5t-33.5 -87.5t-76.5 -64.5t-122.5 -25h-609q-76 0 -143 17t-115 50t-76 85t-28 124v86h154v-88q0 -71 61 -98l155 -22h588q36 0 53.5 14t21 33.5t-5.5 40t-26 32.5
l-259 141q-51 28 -82 70t-42 89t-1 94.5t40.5 85.5t82 61.5t124.5 23.5h359v-155h-373z" />
    <glyph glyph-name="uniFB8F" unicode="&#x6a9;" horiz-adv-x="1588" arabic-form="final" 
d="M984 684q-35 0 -53.5 -16t-21.5 -37.5t10.5 -43.5t44.5 -35l250 -137q30 -14 53 -35.5t39 -48t25 -56.5t10 -61q20 -38 74 -49t130 -11h60v-154h-64q-35 0 -71.5 3.5t-71 11t-65 18.5t-52.5 26q-30 -26 -73 -42.5t-101 -16.5h-659q-77 0 -143.5 16.5t-115 50.5t-76 86
t-27.5 123v86h153v-88q0 -36 16 -59t45 -36.5t69 -19t87 -5.5h638q36 0 53.5 14t20.5 33.5t-6 40t-25 32.5l-259 141q-52 28 -83 70t-42 89t-1.5 94.5t40 85.5t82.5 61.5t125 23.5h360v-155h-375z" />
    <glyph glyph-name="uniFB90" unicode="&#x6a9;" horiz-adv-x="668" arabic-form="initial" 
d="M265 684q-35 0 -54 -16t-22 -37.5t10.5 -43.5t43.5 -35l250 -137q46 -20 77 -58.5t43.5 -85t6 -94.5t-34 -87.5t-77 -64.5t-122.5 -25h-400v154h387q36 0 53.5 14t21 33.5t-5.5 40t-26 32.5l-259 141q-51 28 -82 70t-42 89t-1.5 94.5t40 85.5t82.5 61.5t125 23.5h360
v-155h-374z" />
    <glyph glyph-name="uniFB91" unicode="&#x6a9;" horiz-adv-x="878" arabic-form="medial" 
d="M267 684q-35 0 -53.5 -16t-21.5 -37.5t10.5 -43.5t43.5 -35l249 -137q30 -14 53.5 -35.5t40 -48t25 -56.5t8.5 -61q21 -38 75 -49t131 -11h58v-154h-63q-35 0 -72 3.5t-71.5 11t-65 18.5t-52.5 26q-29 -26 -72 -42.5t-100 -16.5h-402v154h387q36 0 54 14t21 33.5t-6 40
t-26 32.5l-259 141q-51 28 -82.5 70t-42.5 89t-1 94.5t40.5 85.5t82 61.5t124.5 23.5h360v-155h-373z" />
    <glyph glyph-name="uni06AF" unicode="&#x6af;" horiz-adv-x="1348" arabic-form="isolated" 
d="M940 679q-35 0 -53.5 -15t-21 -35.5t11.5 -42t44 -34.5l249 -137q46 -20 76.5 -58.5t43.5 -85t6.5 -94.5t-33.5 -87.5t-76.5 -64.5t-122.5 -25h-609q-77 0 -144 17t-115 50t-75 85t-27 124v86h152v-88q0 -71 62 -98q81 -28 156 -22h586q36 0 53.5 14t21 33.5t-5 40
t-25.5 32.5l-260 141q-51 28 -82 69.5t-42 88t-2 93t39.5 83.5t82 60.5t124.5 23.5h359v-154h-373zM911 959h401v-70h-401v70z" />
    <glyph glyph-name="uniFB93" unicode="&#x6af;" horiz-adv-x="1595" arabic-form="final" 
d="M991 679q-35 0 -53.5 -15t-21.5 -35.5t10.5 -42t43.5 -34.5l249 -137q30 -14 53.5 -35.5t40 -48t25 -56.5t9.5 -61q20 -38 74 -49t131 -11h59v-154h-64q-35 0 -71.5 3.5t-71 11t-65 18.5t-52.5 26q-30 -26 -73.5 -42.5t-100.5 -16.5h-659q-78 0 -144 16.5t-114 50.5
t-75.5 86t-27.5 123v86h153v-88q0 -36 16 -59t45 -36.5t68.5 -19t86.5 -5.5h637q37 0 54.5 14t20.5 33.5t-6 40t-25 32.5l-260 141q-51 28 -82.5 69.5t-42 88t-1 93t40 83.5t82.5 60.5t125 23.5h360v-154h-374zM960 959h401v-70h-401v70z" />
    <glyph glyph-name="uniFB94" unicode="&#x6af;" horiz-adv-x="668" arabic-form="initial" 
d="M265 679q-35 0 -54 -15t-22 -35.5t10.5 -42t43.5 -34.5l250 -137q46 -20 77 -58.5t43.5 -85t6 -94.5t-34 -87.5t-77 -64.5t-122.5 -25h-400v154h387q36 0 53.5 14t21 33.5t-5.5 40t-26 32.5l-259 141q-51 28 -82 69.5t-42 88t-1.5 93t40 83.5t82.5 60.5t125 23.5h360
v-154h-374zM247 959h402v-70h-402v70z" />
    <glyph glyph-name="uniFB95" unicode="&#x6af;" horiz-adv-x="878" arabic-form="medial" 
d="M267 679q-35 0 -53.5 -15t-21.5 -35.5t10.5 -42t43.5 -34.5l249 -137q30 -14 53.5 -35.5t40 -48t25 -56.5t8.5 -61q21 -38 75 -49t131 -11h58v-154h-63q-35 0 -72 3.5t-71.5 11t-65 18.5t-52.5 26q-29 -26 -72 -42.5t-100 -16.5h-402v154h387q36 0 54 14t21 33.5t-6 40
t-26 32.5l-259 141q-51 28 -82.5 69.5t-42.5 88t-1 93t40.5 83.5t82 60.5t124.5 23.5h360v-154h-373zM247 959h402v-70h-402v70z" />
    <glyph glyph-name="uni0644" unicode="&#x644;" horiz-adv-x="647" arabic-form="isolated" 
d="M630 56q0 -72 -23.5 -125t-61.5 -88.5t-86.5 -52.5t-98.5 -17q-51 0 -99.5 18t-87 53.5t-62 88.5t-23.5 123v306h152v-307q0 -31 10 -54.5t26.5 -39t37.5 -23.5t43 -8q23 0 44.5 8t38.5 23.5t27.5 39t10.5 54.5v844h152v-843z" />
    <glyph glyph-name="uniFEDE" unicode="&#x644;" horiz-adv-x="858" arabic-form="final" 
d="M696 5q-36 5 -66 14q-6 -63 -31 -109t-62 -76.5t-82.5 -45.5t-92.5 -15q-51 0 -100 18t-87.5 53.5t-62 88.5t-23.5 123v306h153v-307q0 -31 10 -54.5t26.5 -39t37.5 -23.5t43 -8q23 0 45 8t39 23.5t27.5 39t10.5 54.5v844h150v-625q0 -36 7 -59t24.5 -36.5t46 -19
t72.5 -5.5h85v-154h-92q-42 0 -78 5z" />
    <glyph glyph-name="uniFEDF" unicode="&#x644;" horiz-adv-x="386" arabic-form="initial" 
d="M-16 0v154h86q43 0 71.5 5.5t45.5 19t24 36.5t7 59v625h151v-623q0 -71 -16.5 -123t-51.5 -86t-90.5 -50.5t-134.5 -16.5h-92z" />
    <glyph glyph-name="uniFEE0" unicode="&#x644;" horiz-adv-x="592" arabic-form="medial" 
d="M382 16q-54 16 -91 48q-69 -64 -214 -64h-92v154h86q40 0 67.5 4.5t45 16t25.5 31.5t10 51v642h151v-625q0 -36 7 -59t24.5 -36.5t46 -19t72.5 -5.5h83v-154h-91q-76 0 -130 16z" />
    <glyph glyph-name="uni0645" unicode="&#x645;" horiz-adv-x="776" arabic-form="isolated" 
d="M534 379q48 -1 89.5 -20t73 -51.5t49.5 -75t18 -90.5t-18.5 -91t-50.5 -74.5t-75.5 -50t-93.5 -18.5q-48 0 -91 18t-75.5 51.5t-51 80.5t-18.5 105q-23 -2 -32 -21.5t-10 -45.5v-430h-154v442q1 72 33 123.5t85.5 84t123.5 48t147 15.5h51zM441 146q0 -38 24.5 -62.5
t60.5 -24.5t62 24.5t26 62.5q0 18 -7 33.5t-19 27.5t-28 19t-34 7t-33.5 -7t-27 -19t-18 -27.5t-6.5 -33.5z" />
    <glyph glyph-name="uniFEE2" unicode="&#x645;" horiz-adv-x="980" arabic-form="final" 
d="M524 379q39 -1 73.5 -15t63 -37t49.5 -53t32 -64q12 -15 33 -25.5t47 -17.5t56 -10t62 -3h58v-154h-64q-60 0 -110.5 8t-95.5 28q-30 -60 -86 -94t-128 -34q-53 0 -99 23t-78 60.5t-47.5 86.5t-7.5 102q-16 -8 -28 -25t-12 -42v-447h-150v434q0 71 30 123t78.5 86.5
t110 51.5t123.5 18h90zM428 146q0 -38 24.5 -62.5t61.5 -24.5q38 0 63 24.5t25 62.5q0 18 -6.5 33.5t-18.5 27.5t-28 19t-35 7q-18 0 -34 -7t-27.5 -19t-18 -27.5t-6.5 -33.5z" />
    <glyph glyph-name="uniFEE3" unicode="&#x645;" horiz-adv-x="696" arabic-form="initial" 
d="M82 157q35 3 62.5 11.5t46 24t25.5 40.5q6 44 26.5 82.5t52 67.5t71.5 46t86 17q49 0 92.5 -18.5t75.5 -51t51 -75.5t19 -92q0 -48 -19 -91t-51 -75t-75.5 -50.5t-92.5 -18.5q-57 0 -104.5 22.5t-82.5 63.5q-49 -32 -111.5 -46t-140.5 -14h-25v154h19q40 0 75 3zM366 212
q0 -37 24.5 -61.5t61.5 -24.5q18 0 33.5 6.5t27.5 18t19 27.5t7 34t-7 33.5t-19 27.5t-27.5 19t-33.5 7t-34 -7t-27.5 -19t-18 -27.5t-6.5 -33.5z" />
    <glyph glyph-name="uniFEE4" unicode="&#x645;" horiz-adv-x="899" arabic-form="medial" 
d="M222 250q28 85 86.5 130t144.5 45q44 0 83 -15t69.5 -41.5t51 -63t27.5 -78.5q9 -21 28.5 -35.5t47 -22.5t61.5 -11.5t72 -3.5h17v-154h-23q-77 0 -135.5 10.5t-105.5 39.5q-32 -43 -83 -71t-110 -28q-61 0 -113 28t-84 71q-48 -25 -109.5 -37.5t-130.5 -12.5h-25v154h19
q40 0 76 4t63.5 15t46.5 29.5t26 47.5zM366 190q0 -36 24.5 -61t62.5 -25q17 0 32.5 6.5t27.5 18.5t19 27.5t7 33.5t-7 34t-19 27.5t-27.5 18.5t-32.5 7q-38 0 -62.5 -25.5t-24.5 -61.5z" />
    <glyph glyph-name="uni0646" unicode="&#x646;" horiz-adv-x="661" arabic-form="isolated" 
d="M636 56q0 -72 -23.5 -125t-62 -88.5t-87 -52.5t-97.5 -17q-51 0 -100 18t-87.5 53.5t-62.5 88.5t-24 123v306h154v-307q0 -31 10 -54.5t26 -39t37 -23.5t43 -8q23 0 45 8t39.5 23.5t28 39t10.5 54.5v307h151v-306zM269 535q0 43 27 70t70 27q20 0 38 -7t32 -20t22.5 -31
t8.5 -39t-8.5 -39.5t-22.5 -32t-32 -21.5t-38 -8q-43 0 -70 29t-27 72z" />
    <glyph glyph-name="uniFEE6" unicode="&#x646;" horiz-adv-x="898" arabic-form="final" 
d="M642 37q-4 -67 -28.5 -116.5t-62 -82.5t-84.5 -49t-95 -16q-51 0 -100 18t-87.5 53.5t-62 88.5t-23.5 123v306h153v-307q0 -31 10 -54.5t26.5 -39t37.5 -23.5t43 -8t44 8t39.5 23.5t28 39t10.5 54.5v307h151v-99q1 -33 18 -54t45.5 -33t67 -17t83.5 -5h59v-154h-64
q-118 0 -209 37zM270 523q0 43 28 71t71 28q20 0 38 -7.5t31.5 -20.5t21.5 -31.5t8 -39.5t-8 -39.5t-21.5 -32t-31.5 -21.5t-38 -8q-43 0 -71 29t-28 72z" />
    <glyph glyph-name="uniFEE7" unicode="&#x646;" horiz-adv-x="448" arabic-form="initial" 
d="M-12 0v154h63q46 0 85.5 5.5t68 19t45 36.5t16.5 59v88h153v-86q0 -71 -27.5 -123t-76 -86t-115 -50.5t-143.5 -16.5h-69zM141 539q0 43 28 70.5t71 27.5q20 0 38 -7.5t32 -20.5t22 -31t8 -39t-8 -39.5t-22 -32t-32 -21t-38 -7.5q-43 0 -71 28.5t-28 71.5z" />
    <glyph glyph-name="uniFEE8" unicode="&#x646;" horiz-adv-x="676" arabic-form="medial" 
d="M459 22q-73 22 -123 67q-48 -48 -120.5 -68.5t-162.5 -20.5h-63v154h57q45 0 83.5 5t67.5 17.5t45.5 34t18.5 54.5v97h154v-99q1 -33 17 -54t44.5 -33t67 -17t84.5 -5h58v-154h-64q-91 0 -164 22zM213 559q0 43 27.5 70t70.5 27q20 0 38 -7t32 -20t22.5 -31t8.5 -39
t-8.5 -39.5t-22.5 -32t-32 -21.5t-38 -8q-43 0 -70.5 29t-27.5 72z" />
    <glyph glyph-name="uni0648" unicode="&#x648;" horiz-adv-x="606" arabic-form="isolated" 
d="M587 257v-138q0 -8 0.5 -16t-0.5 -16v-9v-1q-3 -75 -28 -149.5t-82.5 -134t-154.5 -97t-244 -37.5v151q45 0 91.5 6.5t89.5 23t79 44.5t60 72q-6 -2 -12.5 -2h-14.5q-40 0 -78 13t-67.5 39t-47.5 65t-18 90v81q0 52 19 92t49.5 67t69.5 41t80 14q37 0 73 -12.5t65 -37
t48 -62t23 -87.5zM311 190q0 -41 17 -59t39 -18q25 0 45 17t22 49v48q-2 35 -21 52t-42 17t-41.5 -19t-18.5 -61v-26z" />
    <glyph glyph-name="uniFEEE" unicode="&#x648;" horiz-adv-x="665" arabic-form="final" 
d="M366 0q-39 0 -76 12.5t-66.5 38t-48 64t-19.5 89.5v83q1 52 20 91t49 65.5t68 39.5t77 13q40 0 78.5 -13.5t68.5 -40t48 -65.5t18 -90v-133h92v-154q-57 -1 -100 -3q-12 -65 -44 -126t-90.5 -108t-148 -75.5t-217.5 -28.5v151q50 0 102 8t98.5 29t83 58t55.5 95h-48z
M306 234q0 -42 18 -61t42 -19h65v109q-1 39 -22 59t-45 20q-23 0 -40.5 -19.5t-17.5 -63.5v-25z" />
    <glyph glyph-name="uni0647" unicode="&#x647;" horiz-adv-x="554" arabic-form="isolated" 
d="M92 336q-1 52 18 91t49.5 65t70 39.5t79.5 13.5t78 -13t67.5 -39t47.5 -65.5t18 -91.5v-136q1 -52 -17.5 -91t-49.5 -65t-70 -39t-79 -13q-39 0 -77 13t-68 39t-48.5 65t-18.5 91v136zM243 226q2 -42 22 -62t44 -20q23 0 42.5 20t17.5 62v84q-2 41 -21.5 62.5t-43.5 21.5
q-25 0 -43.5 -21.5t-17.5 -62.5v-84z" />
    <glyph glyph-name="uniFEEA" unicode="&#x647;" horiz-adv-x="784" arabic-form="final" 
d="M649.5 5.5q-41.5 5.5 -81.5 17t-74.5 29t-56.5 42.5q-32 -27 -71 -37.5t-78.5 -7t-76.5 20t-64.5 43t-43 63.5t-11.5 81v126q0 45 17 83t46 65.5t67.5 43.5t82.5 17q45 0 84 -15.5t68.5 -43.5t46 -66t16.5 -84v-113q2 -39 23 -62t52.5 -35t69 -15.5t71.5 -3.5h61v-154
h-69q-37 0 -78.5 5.5zM242 286q-2 -25 6.5 -43t22.5 -28t31.5 -11.5t32 5.5t24.5 23.5t9 43.5v82q0 15 -5 29.5t-13.5 26t-20 18.5t-25.5 7q-15 0 -26.5 -7t-19.5 -18.5t-12 -26t-4 -29.5v-72z" />
    <glyph glyph-name="uniFEEB" unicode="&#x647;" horiz-adv-x="845" arabic-form="initial" 
d="M123 385q17 45 46.5 73.5t66 42.5t77 15.5t81.5 -7.5l269 -81q58 -20 96.5 -59.5t55.5 -86.5t14 -96t-28 -90t-71 -67.5t-113 -28.5h-629v154h76q-10 30 -5.5 60t18.5 62zM231 246q-9 -14 -10 -29t4 -28t15.5 -22.5t24.5 -12.5q34 2 52.5 15.5t28.5 34.5q6 14 14 32
t12 29q14 41 -1 68t-41 33q-25 -2 -44 -14t-30 -41zM539 306q-2 -40 -18.5 -81t-33.5 -71h102q45 -2 65.5 14t21.5 38t-16 44.5t-47 35.5z" />
    <glyph glyph-name="uniFEEC" unicode="&#x647;" horiz-adv-x="526" arabic-form="medial" 
d="M-13 154h84q-2 7 -4 15t-3.5 20.5t-2.5 32t-1 49.5q0 52 19 91t49 65t66.5 39.5t71.5 13.5q33 0 68 -13t64 -39.5t47.5 -65.5t18.5 -91q0 -30 -1 -50t-2.5 -32.5t-3.5 -20.5t-4 -14h93v-154h-93q5 -20 8 -48.5t3 -69.5q1 -52 -18 -91t-49 -65t-66.5 -39t-70.5 -13
q-33 0 -68.5 13t-65 39t-48 65t-18.5 91q0 40 4.5 69t9.5 49h-87v154zM311 240q-2 43 -18 64.5t-34 21.5t-32.5 -21.5t-12.5 -64.5q2 -41 18 -62.5t34 -21.5t32 20.5t13 63.5zM214 -86q2 -44 18 -66t34 -22t32 22t13 66q-2 42 -18 63.5t-34 21.5t-32.5 -21t-12.5 -64z" />
    <glyph glyph-name="uni0629" unicode="&#x629;" horiz-adv-x="554" arabic-form="isolated" 
d="M92 336q-1 52 18 91t49.5 65t70 39.5t79.5 13.5t78 -13t67.5 -39t47.5 -65.5t18 -91.5v-136q1 -52 -17.5 -91t-49.5 -65t-70 -39t-79 -13q-39 0 -77 13t-68 39t-48.5 65t-18.5 91v136zM243 226q2 -42 22 -62t44 -20q23 0 42.5 20t17.5 62v84q-2 41 -21.5 62.5t-43.5 21.5
q-25 0 -43.5 -21.5t-17.5 -62.5v-84zM41 708h81q-2 40 13.5 75.5t46 62t75 41.5t101.5 15v-104q-27 1 -51.5 -8t-41.5 -23t-25 -30t-2 -29h120v-109h-317v109z" />
    <glyph glyph-name="uniFBA5" unicode="&#x6c0;" horiz-adv-x="784" arabic-form="final" 
d="M649.5 5.5q-41.5 5.5 -81.5 17t-74.5 29t-56.5 42.5q-32 -27 -71 -37.5t-78.5 -7t-76.5 20t-64.5 43t-43 63.5t-11.5 81v126q0 45 17 83t46 65.5t67.5 43.5t82.5 17q45 0 84 -15.5t68.5 -43.5t46 -66t16.5 -84v-113q2 -39 23 -62t52.5 -35t69 -15.5t71.5 -3.5h61v-154
h-69q-37 0 -78.5 5.5zM242 286q-2 -25 6.5 -43t22.5 -28t31.5 -11.5t32 5.5t24.5 23.5t9 43.5v82q0 15 -5 29.5t-13.5 26t-20 18.5t-25.5 7q-15 0 -26.5 -7t-19.5 -18.5t-12 -26t-4 -29.5v-72zM81 768h81q-2 40 13.5 75.5t46 62t75 41.5t101.5 15v-104q-27 1 -51.5 -8
t-41.5 -23t-25 -30t-2 -29h120v-109h-317v109z" />
    <glyph glyph-name="uni064A" unicode="&#x64a;" horiz-adv-x="791" arabic-form="isolated" 
d="M503 183.5q18 -13.5 54 -19.5t91 -7t130 -1q3 -59 -6.5 -122t-39 -116t-82.5 -87t-135 -34h-139q-53 -1 -104 16.5t-90.5 53.5t-64 90t-24.5 126v324h152v-327q0 -34 11.5 -58.5t30.5 -40t42 -23t47 -7.5h134q18 0 35 4t31.5 11.5t24 19t11.5 26.5q-145 0 -212 48.5
t-67 143.5v77q2 54 21.5 95t50 68.5t68.5 41t78 13.5t78.5 -13t68 -42t47 -75t16.5 -113h-150q-1 30 -7 47t-15 26t-20 11t-22 2q-24 0 -43 -18.5t-19 -64.5v-36q0 -26 18 -39.5z" />
    <glyph glyph-name="uniFBFD" unicode="&#x6cc;" horiz-adv-x="809" arabic-form="final" 
d="M261.5 -104.5q11.5 -24.5 30.5 -40t42 -23t47 -7.5h134q62 -1 88.5 21t26.5 52q0 18 -8 36.5t-22.5 33t-36 23.5t-48.5 9h-139v154h447v-154h-64q10 -23 17 -50.5t7 -53.5q0 -44 -16 -84t-48 -70.5t-81 -49t-116 -18.5h-141q-53 -2 -103.5 15.5t-91 53t-65 89
t-24.5 125.5v305h153v-308q0 -34 11.5 -58.5z" />
    <glyph glyph-name="uniFBFE" unicode="&#x6cc;" horiz-adv-x="466" arabic-form="initial" 
d="M-15 0v154h62q46 0 85.5 5.5t68.5 19t45 36.5t16 59v88h154v-86q0 -71 -27.5 -123t-76.5 -86t-115 -50.5t-144 -16.5h-68zM12 -179q0 43 27.5 71t71.5 28q20 0 38 -7.5t31.5 -20.5t21.5 -31.5t8 -39.5t-8 -39.5t-21.5 -32t-31.5 -21.5t-38 -8q-44 0 -71.5 29t-27.5 72z
M248 -179q0 43 28 71t70 28q20 0 38.5 -7.5t32.5 -20.5t22 -31.5t8 -39.5t-8 -39.5t-22 -32t-32.5 -21.5t-38.5 -8q-42 0 -70 29t-28 72z" />
    <glyph glyph-name="uniFBFF" unicode="&#x6cc;" horiz-adv-x="672" arabic-form="medial" 
d="M455 22q-73 22 -123 67q-48 -48 -120.5 -68.5t-162.5 -20.5h-63v154h57q45 0 83.5 5t67.5 17.5t45.5 34t18.5 54.5v97h154v-99q1 -33 17 -54t44.5 -33t67 -17t84.5 -5h58v-154h-64q-91 0 -164 22zM103 -179q0 43 27.5 71t71.5 28q19 0 37.5 -7.5t32 -20.5t22 -31.5
t8.5 -39.5t-8.5 -39.5t-22 -32t-32 -21.5t-37.5 -8q-44 0 -71.5 29t-27.5 72zM338 -179q0 43 27.5 71t71.5 28q20 0 38 -7.5t32 -20.5t22.5 -31.5t8.5 -39.5t-8.5 -39.5t-22.5 -32t-32 -21.5t-38 -8q-44 0 -71.5 29t-27.5 72z" />
    <glyph glyph-name="uni0649" unicode="&#x649;" horiz-adv-x="791" arabic-form="isolated" 
d="M503 183.5q18 -13.5 54 -19.5t91 -7t130 -1q3 -59 -6.5 -122t-39 -116t-82.5 -87t-135 -34h-139q-53 -1 -104 16.5t-90.5 53.5t-64 90t-24.5 126v324h152v-327q0 -34 11.5 -58.5t30.5 -40t42 -23t47 -7.5h134q18 0 35 4t31.5 11.5t24 19t11.5 26.5q-145 0 -212 48.5
t-67 143.5v77q2 54 21.5 95t50 68.5t68.5 41t78 13.5t78.5 -13t68 -42t47 -75t16.5 -113h-150q-1 30 -7 47t-15 26t-20 11t-22 2q-24 0 -43 -18.5t-19 -64.5v-36q0 -26 18 -39.5z" />
    <glyph glyph-name="uniFEF0" unicode="&#x649;" horiz-adv-x="809" arabic-form="final" 
d="M261.5 -104.5q11.5 -24.5 30.5 -40t42 -23t47 -7.5h134q62 -1 88.5 21t26.5 52q0 18 -8 36.5t-22.5 33t-36 23.5t-48.5 9h-139v154h447v-154h-64q10 -23 17 -50.5t7 -53.5q0 -44 -16 -84t-48 -70.5t-81 -49t-116 -18.5h-141q-53 -2 -103.5 15.5t-91 53t-65 89
t-24.5 125.5v305h153v-308q0 -34 11.5 -58.5z" />
    <glyph glyph-name=".notdef" horiz-adv-x="1024" 
d="M128 0v1298h768v-1298h-768zM256 128h512v1042h-512v-1042z" />
    <glyph glyph-name="glyph1" 
 />
    <glyph glyph-name="glyph2" horiz-adv-x="483" 
 />
    <glyph glyph-name="space" unicode=" " horiz-adv-x="483" 
 />
    <glyph glyph-name="exclam" unicode="!" horiz-adv-x="426" 
d="M220 166q46 0 66.5 -27t20.5 -65q0 -16 -4.5 -31.5t-15 -27.5t-26.5 -19.5t-40 -7.5q-40 0 -61.5 27t-21.5 65t21 62t61 24zM294 223h-151v723h151v-723z" />
    <glyph glyph-name="percent" unicode="%" horiz-adv-x="721" 
d="M637 916l-463 -904h-119l467 904h115zM273 846q0 -32 -20 -51t-48 -19t-50 19t-22 47q0 29 22 49.5t50 20.5t48 -18.5t20 -47.5zM608 83q0 -33 -19 -50t-49 -17q-28 0 -50.5 17t-22.5 47q0 27 22.5 49t47.5 22q33 0 52 -18.5t19 -49.5z" />
    <glyph glyph-name="parenleft" unicode="(" horiz-adv-x="401" 
d="M253 460q0 -134 19 -234t65 -226q-108 98 -154 210.5t-46 263.5q0 142 47 245.5t153 199.5q-49 -129 -66.5 -224t-17.5 -235z" />
    <glyph glyph-name="parenright" unicode=")" horiz-adv-x="364" 
d="M210 460q0 132 -18.5 232t-67.5 227q107 -96 153.5 -199.5t46.5 -245.5q0 -151 -46.5 -264.5t-153.5 -209.5q49 132 67.5 229t18.5 231z" />
    <glyph glyph-name="asterisk" unicode="*" horiz-adv-x="948" 
d="M781 887l-43 135l-194 -64v205h-141l2 -202l-195 63l-45 -135l197 -64l-121 -166l112 -81l119 163l121 -163l115 81l-121 166z" />
    <glyph glyph-name="plus" unicode="+" horiz-adv-x="826" 
d="M719 376h-260v-256h-90v256h-256v92h256v250h90v-250h260v-92z" />
    <glyph glyph-name="comma" unicode="," horiz-adv-x="388" 
d="M317 457v-154q0 -98 -19 -149q-13 -52 -61 -99q-31 -30 -99 -55l-30 77q64 21 96 61q24 39 28 104h-132q0 215 217 215z" />
    <glyph glyph-name="hyphen" unicode="-" horiz-adv-x="860" 
d="M746 354h-634v102h634v-102z" />
    <glyph glyph-name="period" unicode="." horiz-adv-x="419" 
d="M157 89q0 43 28 70.5t71 27.5q20 0 38.5 -7.5t32.5 -20.5t22 -31t8 -39q0 -22 -8 -40.5t-22 -32t-32.5 -21t-38.5 -7.5q-43 0 -71 28.5t-28 72.5z" />
    <glyph glyph-name="slash" unicode="/" horiz-adv-x="484" 
d="M426 939l-293 -1046h-86l300 1046h79z" />
    <glyph glyph-name="zero" unicode="0" horiz-adv-x="446" 
d="M117 444q0 49 31 79.5t80 30.5q22 0 42 -8t35.5 -22.5t24.5 -35t9 -44.5q0 -23 -9 -43.5t-24.5 -35.5t-35.5 -24t-42 -9q-24 0 -44.5 9t-35.5 24t-23 35.5t-8 43.5z" />
    <glyph glyph-name="zero" unicode="&#x6f0;" horiz-adv-x="446" 
d="M117 444q0 49 31 79.5t80 30.5q22 0 42 -8t35.5 -22.5t24.5 -35t9 -44.5q0 -23 -9 -43.5t-24.5 -35.5t-35.5 -24t-42 -9q-24 0 -44.5 9t-35.5 24t-23 35.5t-8 43.5z" />
    <glyph glyph-name="zero" unicode="&#x660;" horiz-adv-x="446" 
d="M117 444q0 49 31 79.5t80 30.5q22 0 42 -8t35.5 -22.5t24.5 -35t9 -44.5q0 -23 -9 -43.5t-24.5 -35.5t-35.5 -24t-42 -9q-24 0 -44.5 9t-35.5 24t-23 35.5t-8 43.5z" />
    <glyph glyph-name="one" unicode="1" horiz-adv-x="391" 
d="M121 946h151v-946h-151v946z" />
    <glyph glyph-name="one" unicode="&#x6f1;" horiz-adv-x="391" 
d="M121 946h151v-946h-151v946z" />
    <glyph glyph-name="one" unicode="&#x661;" horiz-adv-x="391" 
d="M121 946h151v-946h-151v946z" />
    <glyph glyph-name="two" unicode="2" horiz-adv-x="838" 
d="M450 686q31 -1 57 -1t45 6t29 21t9 43v188h152v-170q0 -45 -10 -88.5t-35 -78t-67 -55t-106 -18.5h-290v-533h-154v946h154v-260h216z" />
    <glyph glyph-name="two" unicode="&#x6f2;" horiz-adv-x="838" 
d="M450 686q31 -1 57 -1t45 6t29 21t9 43v188h152v-170q0 -45 -10 -88.5t-35 -78t-67 -55t-106 -18.5h-290v-533h-154v946h154v-260h216z" />
    <glyph glyph-name="two" unicode="&#x662;" horiz-adv-x="838" 
d="M450 686q31 -1 57 -1t45 6t29 21t9 43v188h152v-170q0 -45 -10 -88.5t-35 -78t-67 -55t-106 -18.5h-290v-533h-154v946h154v-260h216z" />
    <glyph glyph-name="three" unicode="3" horiz-adv-x="955" 
d="M662 533q-30 0 -59.5 4.5t-57 15t-51 27.5t-41.5 43q-12 -20 -29.5 -36t-42.5 -28t-59.5 -18.5t-81.5 -7.5v-533h-154v946h154v-260q33 -5 57.5 2.5t41 24.5t25 42t7.5 55v83h152v-83q0 -36 15 -64t39.5 -44.5t54.5 -21t60 5.5q23 9 30 25.5t7 40.5v190h153v-172
q0 -52 -13.5 -95.5t-41 -75t-69 -49t-96.5 -17.5z" />
    <glyph glyph-name="three" unicode="&#x6f3;" horiz-adv-x="955" 
d="M662 533q-30 0 -59.5 4.5t-57 15t-51 27.5t-41.5 43q-12 -20 -29.5 -36t-42.5 -28t-59.5 -18.5t-81.5 -7.5v-533h-154v946h154v-260q33 -5 57.5 2.5t41 24.5t25 42t7.5 55v83h152v-83q0 -36 15 -64t39.5 -44.5t54.5 -21t60 5.5q23 9 30 25.5t7 40.5v190h153v-172
q0 -52 -13.5 -95.5t-41 -75t-69 -49t-96.5 -17.5z" />
    <glyph glyph-name="three" unicode="&#x663;" horiz-adv-x="955" 
d="M662 533q-30 0 -59.5 4.5t-57 15t-51 27.5t-41.5 43q-12 -20 -29.5 -36t-42.5 -28t-59.5 -18.5t-81.5 -7.5v-533h-154v946h154v-260q33 -5 57.5 2.5t41 24.5t25 42t7.5 55v83h152v-83q0 -36 15 -64t39.5 -44.5t54.5 -21t60 5.5q23 9 30 25.5t7 40.5v190h153v-172
q0 -52 -13.5 -95.5t-41 -75t-69 -49t-96.5 -17.5z" />
    <glyph glyph-name="four" unicode="4" horiz-adv-x="965" 
d="M100 946h152v-413h73q-16 29 -24.5 66t-8.5 90q0 59 25.5 107t68.5 81.5t100 52t120 18.5h240v-152h-249q-47 0 -78 -18t-47.5 -45.5t-19 -60t7.5 -62t31.5 -51t52.5 -26.5h320v-151h-612v-382h-152v946z" />
    <glyph glyph-name="four" unicode="&#x6f4;" horiz-adv-x="965" 
d="M100 946h152v-413h73q-16 29 -24.5 66t-8.5 90q0 59 25.5 107t68.5 81.5t100 52t120 18.5h240v-152h-249q-47 0 -78 -18t-47.5 -45.5t-19 -60t7.5 -62t31.5 -51t52.5 -26.5h320v-151h-612v-382h-152v946z" />
    <glyph glyph-name="four" unicode="&#x664;" horiz-adv-x="965" 
d="M100 946h152v-413h73q-16 29 -24.5 66t-8.5 90q0 59 25.5 107t68.5 81.5t100 52t120 18.5h240v-152h-249q-47 0 -78 -18t-47.5 -45.5t-19 -60t7.5 -62t31.5 -51t52.5 -26.5h320v-151h-612v-382h-152v946z" />
    <glyph glyph-name="five" unicode="5" horiz-adv-x="930" 
d="M458 47q-8 -12 -22 -21t-30.5 -16t-35 -10.5t-34.5 -3.5q-72 1 -119.5 20.5t-76 58t-40.5 96t-12 133.5v356q-2 60 22.5 115t67 96.5t98.5 64.5t118 19h145q64 2 119.5 -22t96 -67t62 -100.5t18.5 -121.5v-328q0 -63 -5.5 -120t-26.5 -101t-62.5 -70t-112.5 -27
q-17 0 -38 1t-44 6t-45.5 15t-42.5 27zM394 808q-33 1 -62.5 -11t-50.5 -34t-32 -51.5t-9 -63.5v-401q0 -32 6.5 -51t17 -29.5t24.5 -14t28 -3.5q12 0 22.5 1.5t19 8t15 19t9.5 33.5v45h153v-47q4 -35 24.5 -47.5t44.5 -12.5q14 0 26.5 3.5t22.5 13.5t15.5 27.5t5.5 45.5
l6 415q4 28 -4.5 56t-26 49.5t-42.5 35t-53 13.5h-160z" />
    <glyph glyph-name="five" unicode="&#x6f5;" horiz-adv-x="930" 
d="M458 47q-8 -12 -22 -21t-30.5 -16t-35 -10.5t-34.5 -3.5q-72 1 -119.5 20.5t-76 58t-40.5 96t-12 133.5v356q-2 60 22.5 115t67 96.5t98.5 64.5t118 19h145q64 2 119.5 -22t96 -67t62 -100.5t18.5 -121.5v-328q0 -63 -5.5 -120t-26.5 -101t-62.5 -70t-112.5 -27
q-17 0 -38 1t-44 6t-45.5 15t-42.5 27zM394 808q-33 1 -62.5 -11t-50.5 -34t-32 -51.5t-9 -63.5v-401q0 -32 6.5 -51t17 -29.5t24.5 -14t28 -3.5q12 0 22.5 1.5t19 8t15 19t9.5 33.5v45h153v-47q4 -35 24.5 -47.5t44.5 -12.5q14 0 26.5 3.5t22.5 13.5t15.5 27.5t5.5 45.5
l6 415q4 28 -4.5 56t-26 49.5t-42.5 35t-53 13.5h-160z" />
    <glyph glyph-name="five" unicode="&#x665;" horiz-adv-x="930" 
d="M458 47q-8 -12 -22 -21t-30.5 -16t-35 -10.5t-34.5 -3.5q-72 1 -119.5 20.5t-76 58t-40.5 96t-12 133.5v356q-2 60 22.5 115t67 96.5t98.5 64.5t118 19h145q64 2 119.5 -22t96 -67t62 -100.5t18.5 -121.5v-328q0 -63 -5.5 -120t-26.5 -101t-62.5 -70t-112.5 -27
q-17 0 -38 1t-44 6t-45.5 15t-42.5 27zM394 808q-33 1 -62.5 -11t-50.5 -34t-32 -51.5t-9 -63.5v-401q0 -32 6.5 -51t17 -29.5t24.5 -14t28 -3.5q12 0 22.5 1.5t19 8t15 19t9.5 33.5v45h153v-47q4 -35 24.5 -47.5t44.5 -12.5q14 0 26.5 3.5t22.5 13.5t15.5 27.5t5.5 45.5
l6 415q4 28 -4.5 56t-26 49.5t-42.5 35t-53 13.5h-160z" />
    <glyph glyph-name="six" unicode="6" horiz-adv-x="920" 
d="M227 40l184 328q-31 3 -80 19.5t-119 45.5q-103 57 -124 179q-14 113 45 220l99 170l134 -73l-100 -169q-12 -21 -17 -49t-2 -56t15.5 -52t35.5 -35q55 -23 97.5 -34.5t69.5 -13.5q20 1 34 12.5t28 32.5l171 306l136 -73l-476 -826z" />
    <glyph glyph-name="six" unicode="&#x6f6;" horiz-adv-x="920" 
d="M227 40l184 328q-31 3 -80 19.5t-119 45.5q-103 57 -124 179q-14 113 45 220l99 170l134 -73l-100 -169q-12 -21 -17 -49t-2 -56t15.5 -52t35.5 -35q55 -23 97.5 -34.5t69.5 -13.5q20 1 34 12.5t28 32.5l171 306l136 -73l-476 -826z" />
    <glyph glyph-name="six" unicode="&#x666;" horiz-adv-x="920" 
d="M227 40l184 328q-31 3 -80 19.5t-119 45.5q-103 57 -124 179q-14 113 45 220l99 170l134 -73l-100 -169q-12 -21 -17 -49t-2 -56t15.5 -52t35.5 -35q55 -23 97.5 -34.5t69.5 -13.5q20 1 34 12.5t28 32.5l171 306l136 -73l-476 -826z" />
    <glyph glyph-name="seven" unicode="7" horiz-adv-x="992" 
d="M775 946h158q-50 -175 -85 -300t-59 -210.5t-38 -138t-22 -81.5t-11.5 -40.5t-5.5 -16.5q-14 -38 -33.5 -71t-46.5 -57t-61.5 -37.5t-77.5 -13.5q-42 0 -73 13t-54.5 35.5t-41 53.5t-32.5 67l-232 797h156q50 -170 86 -292.5t61 -207.5t39.5 -136.5t23 -80.5t11.5 -39.5
t5 -12.5q20 -43 59 -43q20 0 32 7t20 19t13.5 28t12.5 34z" />
    <glyph glyph-name="seven" unicode="&#x6f7;" horiz-adv-x="992" 
d="M775 946h158q-50 -175 -85 -300t-59 -210.5t-38 -138t-22 -81.5t-11.5 -40.5t-5.5 -16.5q-14 -38 -33.5 -71t-46.5 -57t-61.5 -37.5t-77.5 -13.5q-42 0 -73 13t-54.5 35.5t-41 53.5t-32.5 67l-232 797h156q50 -170 86 -292.5t61 -207.5t39.5 -136.5t23 -80.5t11.5 -39.5
t5 -12.5q20 -43 59 -43q20 0 32 7t20 19t13.5 28t12.5 34z" />
    <glyph glyph-name="seven" unicode="&#x667;" horiz-adv-x="992" 
d="M775 946h158q-50 -175 -85 -300t-59 -210.5t-38 -138t-22 -81.5t-11.5 -40.5t-5.5 -16.5q-14 -38 -33.5 -71t-46.5 -57t-61.5 -37.5t-77.5 -13.5q-42 0 -73 13t-54.5 35.5t-41 53.5t-32.5 67l-232 797h156q50 -170 86 -292.5t61 -207.5t39.5 -136.5t23 -80.5t11.5 -39.5
t5 -12.5q20 -43 59 -43q20 0 32 7t20 19t13.5 28t12.5 34z" />
    <glyph glyph-name="eight" unicode="8" horiz-adv-x="1006" 
d="M580 712q-7 18 -12.5 34t-13.5 28t-20 19t-32 7q-40 0 -59 -44q-1 -2 -4.5 -12t-12 -37.5t-23.5 -77.5t-39.5 -133.5t-60.5 -205.5t-87 -292h-156l233 787q15 36 32.5 66.5t41 53t54.5 35.5t73 13q43 0 77.5 -13.5t61.5 -37.5t46.5 -56.5t33.5 -69.5q2 -5 5.5 -16
t11.5 -39.5t22 -79t38 -135.5t59 -209t85 -299h-158z" />
    <glyph glyph-name="eight" unicode="&#x6f8;" horiz-adv-x="1006" 
d="M580 712q-7 18 -12.5 34t-13.5 28t-20 19t-32 7q-40 0 -59 -44q-1 -2 -4.5 -12t-12 -37.5t-23.5 -77.5t-39.5 -133.5t-60.5 -205.5t-87 -292h-156l233 787q15 36 32.5 66.5t41 53t54.5 35.5t73 13q43 0 77.5 -13.5t61.5 -37.5t46.5 -56.5t33.5 -69.5q2 -5 5.5 -16
t11.5 -39.5t22 -79t38 -135.5t59 -209t85 -299h-158z" />
    <glyph glyph-name="eight" unicode="&#x668;" horiz-adv-x="1006" 
d="M580 712q-7 18 -12.5 34t-13.5 28t-20 19t-32 7q-40 0 -59 -44q-1 -2 -4.5 -12t-12 -37.5t-23.5 -77.5t-39.5 -133.5t-60.5 -205.5t-87 -292h-156l233 787q15 36 32.5 66.5t41 53t54.5 35.5t73 13q43 0 77.5 -13.5t61.5 -37.5t46.5 -56.5t33.5 -69.5q2 -5 5.5 -16
t11.5 -39.5t22 -79t38 -135.5t59 -209t85 -299h-158z" />
    <glyph glyph-name="nine" unicode="9" horiz-adv-x="847" 
d="M582 790h-226q-23 0 -46 -7t-43 -17q-16 -16 -26.5 -33t-10.5 -35q0 -23 9 -43.5t24.5 -35.5t36 -24t43.5 -9h239v204zM735 946v-948h-153v435h-244q-54 0 -98 20t-83 61q-71 79 -71 189q0 53 20 95.5t61 77.5q42 32 89 51t101 19h378z" />
    <glyph glyph-name="nine" unicode="&#x6f9;" horiz-adv-x="847" 
d="M582 790h-226q-23 0 -46 -7t-43 -17q-16 -16 -26.5 -33t-10.5 -35q0 -23 9 -43.5t24.5 -35.5t36 -24t43.5 -9h239v204zM735 946v-948h-153v435h-244q-54 0 -98 20t-83 61q-71 79 -71 189q0 53 20 95.5t61 77.5q42 32 89 51t101 19h378z" />
    <glyph glyph-name="nine" unicode="&#x669;" horiz-adv-x="847" 
d="M582 790h-226q-23 0 -46 -7t-43 -17q-16 -16 -26.5 -33t-10.5 -35q0 -23 9 -43.5t24.5 -35.5t36 -24t43.5 -9h239v204zM735 946v-948h-153v435h-244q-54 0 -98 20t-83 61q-71 79 -71 189q0 53 20 95.5t61 77.5q42 32 89 51t101 19h378z" />
    <glyph glyph-name="colon" unicode=":" horiz-adv-x="451" 
d="M180 539q0 43 28 70.5t71 27.5q20 0 38 -7.5t32 -20.5t22 -31t8 -39t-8 -39.5t-22 -32t-32 -21t-38 -7.5q-43 0 -71 28.5t-28 71.5zM180 86q0 44 28 71.5t71 27.5q40 0 70 -27.5t30 -71.5q0 -21 -8 -39t-22 -31.5t-32 -21t-38 -7.5q-43 0 -71 28.5t-28 70.5z" />
    <glyph glyph-name="equal" unicode="=" horiz-adv-x="842" 
d="M718 511v-102h-598v102h598zM718 323v-103h-598v103h598z" />
    <glyph glyph-name="bracketleft" unicode="[" horiz-adv-x="338" 
d="M315 -74h-295v1192h295v-115h-129v-962h129v-115z" />
    <glyph glyph-name="bracketright" unicode="]" horiz-adv-x="471" 
d="M381 -74h-295v115h131v962h-131v115h295v-1192z" />
    <glyph glyph-name="braceleft" unicode="{" horiz-adv-x="981" 
d="M832 -320q-152 27 -249 129q-103 107 -103 257q0 61 26 177q19 85 19 112q0 97 -72 163q-67 62 -166 73v38q239 52 239 219q0 47 -16 122q-27 126 -27 188q0 151 101 257q96 102 248 127v-40q-94 -14 -155 -73q-67 -64 -67 -155q0 -46 13 -115q30 -160 30 -210
q0 -224 -286 -336q283 -116 283 -350q0 -49 -27 -179q-17 -82 -17 -135q0 -180 226 -233v-36z" />
    <glyph glyph-name="braceright" unicode="}" horiz-adv-x="981" 
d="M695 593q-239 -52 -239 -220q0 -52 15 -122q28 -131 28 -187q0 -151 -101 -257q-96 -102 -248 -127v40q94 14 155 73q66 63 66 155q0 48 -12 114q-30 164 -30 211q0 223 285 336q-282 116 -282 349q0 55 26 180q18 87 18 135q0 180 -226 233v36q152 -28 249 -129
q103 -106 103 -257q0 -57 -27 -177q-18 -80 -18 -113q0 -97 73 -162q64 -58 165 -74v-37z" />
    <glyph glyph-name="guillemotleft" unicode="&#xab;" horiz-adv-x="731" 
d="M585 640q18 7 35 2.5t28 -15.5t13 -26.5t-8 -30.5q-78 -54 -118 -115t-44.5 -127t24 -136.5t85.5 -144.5q13 -17 7 -33t-21 -25.5t-35 -9.5t-36 15q-48 49 -79 106t-44.5 117t-9.5 120t28 115.5t67.5 103.5t107.5 84zM348 640q18 7 35 2.5t28 -15.5t14 -26.5t-7 -30.5
q-79 -54 -118.5 -115t-44.5 -127t23.5 -136.5t85.5 -144.5q12 -17 6.5 -33t-20.5 -25.5t-35 -9.5t-36 15q-47 49 -78.5 106t-45 117t-9 120t28 115.5t66.5 103.5t107 84z" />
    <glyph glyph-name="guillemotright" unicode="&#xbb;" horiz-adv-x="718" 
d="M226 640q64 -36 107 -84t66.5 -103.5t28 -115.5t-9.5 -120t-45 -117t-79 -106q-16 -15 -36 -15t-35 9.5t-20.5 25.5t6.5 33q58 74 86 144.5t23.5 136.5t-44.5 127t-118 115q-10 15 -7.5 30.5t13.5 26.5t28 15.5t36 -2.5zM461 640q64 -36 107.5 -84t67.5 -103.5t28 -115.5
t-9.5 -120t-44.5 -117t-79 -106q-16 -15 -36 -15t-35 9.5t-21 25.5t7 33q57 74 85.5 144.5t24 136.5t-44.5 127t-118 115q-11 15 -8.5 30.5t13.5 26.5t28 15.5t35 -2.5z" />
    <glyph glyph-name="multiply" unicode="&#xd7;" horiz-adv-x="946" 
d="M802 219l-58 -57l-277 275l-277 -275l-59 57l275 278l-275 278l62 56l274 -276l277 276l58 -56l-279 -278z" />
    <glyph glyph-name="divide" unicode="&#xf7;" horiz-adv-x="946" 
d="M549 772q0 -36 -23.5 -61.5t-59.5 -25.5q-35 0 -60.5 26t-25.5 61q0 36 25 59.5t61 23.5q35 0 59 -24t24 -59zM835 452h-730v83h730v-83zM549 215q0 -36 -23.5 -61t-59.5 -25q-35 0 -60.5 25.5t-25.5 60.5q0 36 25 60.5t61 24.5q83 0 83 -85z" />
    <glyph glyph-name="uni200C" unicode="&#x200c;" horiz-adv-x="33" 
 />
    <glyph glyph-name="uni200D" unicode="&#x200d;" horiz-adv-x="33" 
 />
    <glyph glyph-name="uni200E" unicode="&#x200e;" horiz-adv-x="33" 
d="M219 1167l-97 -100l-25 21l64 64h-128v-1152h-33v1183h157l-60 60l25 23z" />
    <glyph glyph-name="uni200F" unicode="&#x200f;" horiz-adv-x="33" 
d="M33 0h-33v1152h-128l62 -64l-21 -21l-101 100l101 99l21 -23l-60 -60h159v-1183z" />
    <glyph glyph-name="quoteleft" unicode="&#x2018;" horiz-adv-x="491" 
d="M467 1486q-89 -59 -154 -145q-76 -101 -76 -193q0 -55 32 -98q39 47 90 47q102 0 102 -100q0 -59 -48 -92q-43 -30 -104 -30q-82 0 -133 50.5t-51 132.5q0 141 108 283q97 127 234 200v-55z" />
    <glyph glyph-name="quoteright" unicode="&#x2019;" horiz-adv-x="491" 
d="M444 1353q0 -143 -107 -281q-91 -118 -232 -200v56q228 162 228 338q0 62 -33 101q-33 -49 -95 -49q-41 0 -69.5 28t-28.5 69q0 58 49 93q43 31 104 31q86 0 135 -50t49 -136z" />
    <glyph glyph-name="quotedblleft" unicode="&#x201c;" horiz-adv-x="650" 
d="M572 1146q-13 -6 -41 -26q-52 -51 -52 -95q82 -22 82 -112q0 -45 -31.5 -78t-76.5 -33q-52 0 -84 42q-29 38 -29 92q0 201 203 359q0 -83 1 -93q4 -40 28 -56zM302 1146q-13 -6 -41 -26q-52 -51 -52 -95q82 -22 82 -112q0 -45 -31.5 -78t-76.5 -33q-52 0 -84 42
q-29 38 -29 92q0 201 203 359q0 -83 1 -93q4 -40 28 -56z" />
    <glyph glyph-name="quotedblright" unicode="&#x201d;" horiz-adv-x="650" 
d="M580 1151q0 -201 -203 -359q0 83 -1 93q-4 40 -28 56q13 6 41 26q52 51 52 95q-82 22 -82 112q0 46 31 78.5t77 32.5q54 0 85 -41q28 -37 28 -93zM310 1151q0 -201 -203 -359q0 83 -1 93q-4 40 -28 56q13 6 41 26q52 51 52 95q-82 22 -82 112q0 46 31 78.5t77 32.5
q54 0 85 -41q28 -37 28 -93z" />
    <glyph glyph-name="guilsinglleft" unicode="&#x2039;" horiz-adv-x="512" 
d="M457 966l-228 -382l222 -380v-75l-383 455l389 457v-75z" />
    <glyph glyph-name="guilsinglright" unicode="&#x203a;" horiz-adv-x="512" 
d="M457 586l-393 -457v75l231 382l-222 381v77z" />
    <glyph glyph-name="uni060C" unicode="&#x60c;" horiz-adv-x="388" 
d="M269 203q46 0 82.5 -26t36.5 -67q0 -35 -20 -63.5t-51 -38.5q-18 -2 -29 -2q-54 0 -81 48q-9 30 -10 72t7.5 87t27 88.5t47.5 76.5h63q-15 -15 -27.5 -37t-22.5 -46t-16 -48.5t-7 -43.5z" />
    <glyph glyph-name="uni061B" unicode="&#x61b;" horiz-adv-x="443" 
d="M234 478q46 0 82.5 -26t36.5 -67q0 -35 -20 -63.5t-51 -38.5q-18 -2 -29 -2q-54 0 -81 48q-9 30 -10 72t7.5 87t27 88.5t47.5 76.5h63q-15 -15 -27.5 -37t-22.5 -46t-16 -48.5t-7 -43.5zM167 86q0 44 28 71.5t72 27.5q19 0 37 -7.5t32 -20.5t22 -31t8 -40q0 -21 -8 -39
t-22 -31.5t-32 -21t-37 -7.5q-44 0 -72 28.5t-28 70.5z" />
    <glyph glyph-name="uni061F" unicode="&#x61f;" horiz-adv-x="852" 
d="M620 151q33 0 55 -23t22 -55t-19 -53.5t-56 -21.5q-18 0 -32 6.5t-24.5 17t-16 24.5t-5.5 28q0 33 21 55t55 22zM695 946v-156h-267q-29 0 -56 -7.5t-50 -19.5q-20 -15 -32 -31.5t-12 -39.5q0 -20 12 -37.5t32 -29.5q20 -11 48 -18t58 -7h267v-380h-154v226h-113
q-112 0 -196 63q-48 38 -70 83t-22 100q0 57 23.5 101.5t68.5 82.5q45 32 93.5 51t102.5 19h267z" />
    <glyph glyph-name="uni0640" unicode="&#x640;" horiz-adv-x="310" 
d="M-14 0v154h343v-154h-343z" />
    <glyph glyph-name="uni064B" unicode="&#x64b;" 
d="M426 1204l-381 -103l-15 65l381 108zM435 1055l-381 -103l-16 64l380 108z" />
    <glyph glyph-name="uni064C" unicode="&#x64c;" 
d="M443 1262q0 -98 -89 -166l54 -36l-44 -50q-45 23 -65 47q-95 -64 -239 -98l-27 59q12 5 25 13q35 34 35 74q0 22 -16 28q-23 12 -56 -9l-5 38q40 34 78 34q47 0 47 -56q0 -33 -30 -91q86 19 136 67q-28 45 -28 80q0 49 40.5 100.5t88.5 51.5q39 0 67 -24t28 -62z
M386 1238q0 48 -55 48q-22 0 -42.5 -24.5t-20.5 -45.5q0 -19 14 -42t32 -28q27 6 49.5 34.5t22.5 57.5z" />
    <glyph glyph-name="uni064D" unicode="&#x64d;" 
d="M465 -313l-381 -102l-14 64l380 108zM475 -461l-382 -103l-14 63l379 110z" />
    <glyph glyph-name="uni064E" unicode="&#x64e;" 
d="M434 1045l-381 -103l-16 64l381 108z" />
    <glyph glyph-name="uni064F" unicode="&#x64f;" 
d="M444 1229q0 -99 -90 -163l54 -36l-43 -50q-40 27 -57 51q-118 -76 -247 -103l-28 60q103 35 113 39q67 27 101 59q-28 46 -28 80q0 49 40.5 100.5t88.5 51.5q39 0 67.5 -25t28.5 -64zM386 1208q0 48 -55 48q-24 0 -46 -26.5t-22 -50.5q0 -47 48 -66q29 8 52 36.5t23 58.5
z" />
    <glyph glyph-name="uni0650" unicode="&#x650;" 
d="M476 -581l-382 -102l-14 63l380 108z" />
    <glyph glyph-name="uni0651" unicode="&#x651;" 
d="M445 1223q6 -46 6 -84q0 -183 -125 -183q-63 0 -85 83q-52 -114 -138 -114q-77 0 -77 94q0 60 37 124h46q-18 -50 -18 -77q0 -41 46 -41q37 0 62 54q17 40 23 87l55 21q1 -60 6 -82q12 -47 52 -47q61 0 61 73q0 28 -8 72z" />
    <glyph glyph-name="uni0652" unicode="&#x652;" 
d="M371 1087q0 -63 -39 -108q-41 -47 -103 -47q-53 0 -87.5 33.5t-34.5 86.5q0 63 27 119q33 69 91 69q43 0 90 -38q56 -47 56 -115zM309 1081q0 32 -30.5 56.5t-62.5 24.5q-21 0 -38 -28t-17 -49q0 -55 71 -55q24 0 48 13q29 16 29 38z" />
    <glyph glyph-name="uniE820" unicode="&#xe820;" 
d="M441 1065l-381 -103l-15 65l380 108z" />
    <glyph glyph-name="uniE821" unicode="&#xe821;" 
d="M459 1291q0 -100 -90 -163l53 -37l-42 -49q-41 28 -58 50q-117 -76 -247 -102l-27 60q102 35 113 39q66 26 100 59q-28 45 -28 80q0 49 39 98q42 53 91 53q39 0 67.5 -24.5t28.5 -63.5zM401 1269q0 50 -56 50q-23 0 -45 -27t-22 -51q0 -48 47 -67q29 9 52.5 37.5
t23.5 57.5z" />
    <glyph glyph-name="uniE822" unicode="&#xe822;" 
d="M350 1135q0 -63 -39 -108q-41 -48 -103 -48q-53 0 -87.5 34t-34.5 87q0 63 27 118q33 70 91 70q43 0 90 -38q56 -47 56 -115zM288 1128q0 32 -30.5 57t-62.5 25q-21 0 -38 -28t-17 -50q0 -55 71 -55q24 0 48 14q29 16 29 37z" />
    <glyph glyph-name="uniE823" unicode="&#xe823;" 
d="M419 1228l-382 -102l-14 64l380 108zM428 1080l-382 -104l-15 65l380 108z" />
    <glyph glyph-name="uniE824" unicode="&#xe824;" 
d="M486 1290q0 -98 -89 -166l53 -37l-43 -49q-46 24 -65 47q-95 -64 -240 -97l-26 59q11 5 24 13q36 32 36 74q0 21 -16 28q-23 10 -56 -9l-5 36q39 35 78 35q46 0 46 -55q0 -33 -29 -91q86 18 136 67q-29 44 -29 79q0 50 39 99q42 53 91 53q38 0 66.5 -24t28.5 -62z
M429 1266q0 49 -56 49q-21 0 -41.5 -24.5t-20.5 -45.5q0 -20 14 -43t31 -28q28 6 50.5 34.5t22.5 57.5z" />
    <glyph glyph-name="uniE825" unicode="&#xe825;" 
d="M445 1261q6 -45 6 -84q0 -183 -125 -183q-63 0 -85 83q-52 -113 -138 -113q-77 0 -77 94q0 60 37 123h46q-18 -49 -18 -76q0 -42 46 -42q37 0 62 55q17 40 23 87l55 21q1 -61 6 -82q12 -48 52 -48q61 0 61 73q0 29 -8 72z" />
    <glyph glyph-name="uniE826" unicode="&#xe826;" 
d="M400 -235l-382 -102l-14 64l380 108z" />
    <glyph glyph-name="uniE827" unicode="&#xe827;" 
d="M379 -242l-380 -102l-16 64l381 108zM388 -390l-381 -103l-14 64l379 108z" />
    <glyph glyph-name="uniE828" unicode="&#xe828;" 
d="M447 1223q6 -45 6 -83q0 -183 -125 -183q-63 0 -85 83q-52 -113 -138 -113q-77 0 -77 93q0 60 37 124h46q-18 -51 -18 -77q0 -42 46 -42q37 0 62 55q17 41 23 86l55 23q1 -62 6 -82q12 -48 52 -48q61 0 61 73q0 28 -9 72zM451 1343l-381 -103l-16 65l380 108z" />
    <glyph glyph-name="uniE829" unicode="&#xe829;" 
d="M441 1218q6 -45 6 -83q0 -184 -125 -184q-63 0 -85 84q-52 -113 -138 -113q-77 0 -77 93q0 61 37 123h46q-18 -49 -18 -76q0 -42 46 -42q37 0 62 56q17 39 22 86l56 21q1 -61 6 -81q12 -49 52 -49q60 0 60 74q0 28 -8 72zM443 1533q0 -100 -90 -163l53 -37l-42 -49
q-41 28 -58 51q-117 -77 -247 -102l-27 58q102 36 112 40q68 27 102 59q-28 45 -28 80q0 49 39 99q41 52 89 52q40 0 68.5 -24.5t28.5 -63.5zM385 1512q0 49 -56 49q-23 0 -45 -27t-22 -50q0 -49 47 -68q29 9 52.5 37.5t23.5 58.5z" />
    <glyph glyph-name="uniE82A" unicode="&#xe82a;" 
d="M438 1187q6 -46 6 -83q0 -185 -126 -185q-62 0 -84 83q-52 -113 -138 -113q-77 0 -77 94q0 60 37 124h46q-18 -50 -18 -77q0 -42 46 -42q37 0 62 55q17 40 22 87l56 21q1 -60 6 -81q12 -48 52 -48q60 0 60 72q0 29 -8 72zM420 1449l-381 -103l-15 64l381 108zM429 1300
l-381 -104l-16 65l381 108z" />
    <glyph glyph-name="uniE82B" unicode="&#xe82b;" 
d="M452 1190q6 -45 6 -83q0 -184 -125 -184q-63 0 -85 84q-52 -113 -138 -113q-77 0 -77 93q0 60 37 123h46q-18 -49 -18 -76q0 -42 46 -42q38 0 62 55q17 40 23 87l55 21q1 -61 6 -81q12 -49 52 -49q61 0 61 73q0 29 -8 73zM443 1489q0 -97 -89 -165l54 -37l-44 -49
q-45 24 -64 47q-96 -64 -240 -97l-27 57q12 6 25 15q35 32 35 74q0 20 -16 28q-23 10 -56 -9l-5 36q40 35 78 35q47 0 47 -55q0 -33 -30 -91q86 18 136 67q-28 43 -28 79q0 49 39 99q42 52 90 52q39 0 67 -23.5t28 -62.5zM387 1466q0 49 -56 49q-22 0 -42.5 -24.5
t-20.5 -46.5q0 -19 14 -42t32 -28q27 6 50 34.5t23 57.5z" />
    <glyph glyph-name="uniE82C" unicode="&#xe82c;" horiz-adv-x="1" 
d="M444 1432q7 -45 7 -83q0 -184 -126 -184q-63 0 -85 84q-52 -113 -137 -113q-77 0 -77 93q0 61 37 123h46q-19 -49 -19 -75q0 -43 47 -43q37 0 62 56q17 39 22 86l55 21q2 -61 7 -81q12 -49 52 -49q60 0 60 74q0 28 -8 72zM434 1029l-381 -102l-14 62l380 109z" />
    <glyph glyph-name="uniE82D" unicode="&#xe82d;" horiz-adv-x="1" 
d="M428 1589q6 -45 6 -84q0 -183 -126 -183q-63 0 -85 83q-51 -113 -137 -113q-77 0 -77 94q0 59 37 123h46q-19 -49 -19 -77q0 -41 47 -41q37 0 62 54q17 41 22 87l56 22q1 -61 6 -82q12 -48 52 -48q60 0 60 73q0 28 -8 72zM425 1165l-382 -102l-14 64l380 108zM433 1018
l-381 -104l-15 64l381 108z" />
    <glyph glyph-name="uni0621" unicode="&#x621;" horiz-adv-x="713" 
d="M171 157h121q-2 61 21 114.5t69.5 93t114 62.5t154.5 23v-157q-42 3 -79 -11t-63 -36t-37.5 -46.5t-2.5 -42.5h182v-152h-480v152z" />
    <glyph glyph-name="periodcentered" unicode="&#xb7;" horiz-adv-x="405" 
d="M326 768q0 -50 -35.5 -85t-85.5 -35q-49 0 -84.5 35.5t-35.5 84.5t34.5 85t83.5 36q51 0 87 -35t36 -86z" />
    </font>
</defs>
</svg>
